<?xml version="1.0" encoding="utf-8"?>
<!-- Generator: Adobe Illustrator 27.5.0, SVG Export Plug-In . SVG Version: 6.00 Build 0)  -->
<svg version="1.1" xmlns="http://www.w3.org/2000/svg" xmlns:xlink="http://www.w3.org/1999/xlink" x="0px" y="0px"
	 viewBox="0 0 800 800" style="enable-background:new 0 0 800 800;" xml:space="preserve">
<g id="Background">
	<rect style="fill:#F0F8F3;" width="800" height="800"/>
</g>
<g id="Objects">
	<g>
		<g>
			<path style="fill:#FF7735;" d="M173.424,412.831c0,0,45.201-3.545,57.165,20.385c11.965,23.93-7.09,61.597-1.329,80.652
				c5.761,19.055,54.728,87.742,24.151,130.284c-30.577,42.542-155.542,42.542-186.119,0
				c-30.577-42.542,18.39-111.228,24.151-130.284c5.761-19.055-13.294-56.722-1.329-80.652
				c11.965-23.93,57.165-20.385,57.165-20.385H173.424z"/>
			<path style="fill:#FFA649;" d="M173.424,406.165c0,0,45.201-3.545,57.165,20.384c11.965,23.93-7.09,61.597-1.329,80.652
				c5.761,19.055,54.728,87.742,24.151,130.284c-30.577,42.542-155.542,42.542-186.119,0
				c-30.577-42.542,18.39-111.229,24.151-130.284c5.761-19.055-13.294-56.722-1.329-80.652
				c11.965-23.93,57.165-20.384,57.165-20.384H173.424z"/>
			<path style="fill:#66375D;" d="M174.368,417.427c0,0,36.5-4.5,47.5,20.5s-19,60.5-21.5,72c0,0-7.5-26-29.5-31.5
				C166.368,467.427,174.368,417.427,174.368,417.427z"/>
			<circle style="fill:#DFE9E1;" cx="164.368" cy="513.927" r="39.5"/>
			<circle style="fill:#66375D;" cx="164.368" cy="513.927" r="31"/>
			<path style="fill:#9E4477;" d="M178.292,568.824h19.494v11.306h-12.476c0,0-5.458,0.39-11.696,2.729
				c-6.238,2.339-11.501,2.339-17.739,0c-6.238-2.339-11.696-2.729-11.696-2.729h-12.476v-11.306h19.494H178.292z"/>
			<g>
				<g>
					<g>
						
							<rect x="136.633" y="196.749" transform="matrix(0.1776 -0.9841 0.9841 0.1776 -83.4064 299.8516)" style="fill:#E7F3F2;" width="2.125" height="6.156"/>
						<path style="fill:#E7F3F2;" d="M136.186,197.999l-0.035,0.913c-0.081,2.107-1.871,3.764-3.977,3.684l-0.477-0.018
							c-2.107-0.081-3.764-1.871-3.684-3.977l0.035-0.913c0.081-2.107,1.871-3.764,3.977-3.683l0.477,0.018
							C134.609,194.102,136.267,195.892,136.186,197.999z"/>
						<path style="fill:#FFFFFF;" d="M136.396,197.19l-0.035,0.913c-0.081,2.107-1.871,3.764-3.978,3.684l-0.477-0.018
							c-2.107-0.081-3.764-1.871-3.684-3.978l0.035-0.913c0.081-2.107,1.871-3.764,3.978-3.684l0.477,0.018
							C134.819,193.294,136.477,195.083,136.396,197.19z"/>
					</g>
					<g>
						
							<rect x="140.371" y="175.496" transform="matrix(0.1776 -0.9841 0.9841 0.1776 -59.4153 286.054)" style="fill:#E7F3F2;" width="2.125" height="6.156"/>
						<path style="fill:#E7F3F2;" d="M139.924,176.746l-0.035,0.913c-0.081,2.107-1.871,3.764-3.978,3.684l-0.477-0.018
							c-2.107-0.081-3.764-1.871-3.684-3.978l0.035-0.913c0.081-2.107,1.871-3.764,3.978-3.684l0.477,0.018
							C138.347,172.849,140.005,174.639,139.924,176.746z"/>
						<path style="fill:#FFFFFF;" d="M140.134,175.937l-0.035,0.913c-0.081,2.107-1.871,3.764-3.978,3.684l-0.477-0.018
							c-2.107-0.081-3.764-1.871-3.684-3.978l0.035-0.913c0.081-2.107,1.871-3.764,3.978-3.683l0.477,0.018
							C138.557,172.04,140.215,173.83,140.134,175.937z"/>
					</g>
					<g>
						
							<rect x="142.652" y="154.611" transform="matrix(0.1776 -0.9841 0.9841 0.1776 -36.9855 271.1229)" style="fill:#E7F3F2;" width="2.125" height="6.156"/>
						<path style="fill:#E7F3F2;" d="M142.206,155.861l-0.035,0.913c-0.081,2.107-1.871,3.764-3.977,3.684l-0.477-0.018
							c-2.107-0.081-3.764-1.871-3.684-3.977l0.035-0.913c0.081-2.107,1.871-3.764,3.977-3.684l0.477,0.018
							C140.629,151.964,142.287,153.754,142.206,155.861z"/>
						<path style="fill:#FFFFFF;" d="M142.416,155.052l-0.035,0.913c-0.081,2.107-1.871,3.764-3.978,3.683l-0.477-0.018
							c-2.107-0.081-3.764-1.871-3.684-3.977l0.035-0.913c0.081-2.107,1.871-3.764,3.978-3.684l0.477,0.018
							C140.839,151.156,142.496,152.945,142.416,155.052z"/>
					</g>
				</g>
				<g>
					<g>
						
							<rect x="179.931" y="198.765" transform="matrix(0.9841 -0.1776 0.1776 0.9841 -32.5743 35.6716)" style="fill:#E7F3F2;" width="6.156" height="2.125"/>
						<path style="fill:#E7F3F2;" d="M184.518,197.999l0.035,0.913c0.081,2.107,1.871,3.764,3.977,3.684l0.477-0.018
							c2.107-0.081,3.764-1.871,3.684-3.977l-0.035-0.913c-0.081-2.107-1.871-3.764-3.977-3.683l-0.477,0.018
							C186.095,194.102,184.437,195.892,184.518,197.999z"/>
						<path style="fill:#FFFFFF;" d="M184.308,197.19l0.035,0.913c0.081,2.107,1.871,3.764,3.978,3.684l0.477-0.018
							c2.107-0.081,3.764-1.871,3.684-3.978l-0.035-0.913c-0.081-2.107-1.871-3.764-3.977-3.684l-0.477,0.018
							C185.885,193.294,184.227,195.083,184.308,197.19z"/>
					</g>
					<g>
						
							<rect x="176.193" y="177.512" transform="matrix(0.9841 -0.1775 0.1775 0.9841 -28.8571 34.6662)" style="fill:#E7F3F2;" width="6.156" height="2.125"/>
						<path style="fill:#E7F3F2;" d="M180.78,176.746l0.035,0.913c0.081,2.107,1.871,3.764,3.978,3.684l0.477-0.018
							c2.107-0.081,3.764-1.871,3.684-3.978l-0.035-0.913c-0.081-2.107-1.871-3.764-3.977-3.684l-0.477,0.018
							C182.357,172.849,180.699,174.639,180.78,176.746z"/>
						<path style="fill:#FFFFFF;" d="M180.57,175.937l0.035,0.913c0.081,2.107,1.871,3.764,3.977,3.684l0.477-0.018
							c2.107-0.081,3.764-1.871,3.684-3.978l-0.035-0.913c-0.081-2.107-1.871-3.764-3.977-3.683l-0.477,0.018
							C182.147,172.04,180.489,173.83,180.57,175.937z"/>
					</g>
					<g>
						
							<rect x="173.911" y="156.627" transform="matrix(0.9841 -0.1776 0.1776 0.9841 -25.1857 33.9299)" style="fill:#E7F3F2;" width="6.156" height="2.125"/>
						<path style="fill:#E7F3F2;" d="M178.498,155.861l0.035,0.913c0.081,2.107,1.871,3.764,3.978,3.684l0.477-0.018
							c2.107-0.081,3.764-1.871,3.683-3.977l-0.035-0.913c-0.081-2.107-1.871-3.764-3.977-3.684l-0.477,0.018
							C180.075,151.964,178.417,153.754,178.498,155.861z"/>
						<path style="fill:#FFFFFF;" d="M178.288,155.052l0.035,0.913c0.081,2.107,1.871,3.764,3.977,3.683l0.477-0.018
							c2.107-0.081,3.764-1.871,3.684-3.977l-0.035-0.913c-0.081-2.107-1.871-3.764-3.978-3.684l-0.477,0.018
							C179.865,151.156,178.208,152.945,178.288,155.052z"/>
					</g>
				</g>
				<path style="fill:#66375D;" d="M171.147,234.216c0,0,1.437-14.803,11.404-18.926c1.932-0.799,3.005-2.861,2.378-4.856
					c-3.049-9.702-10.374-54.159-8.201-67.344c0.216-1.312-0.167-2.652-1.107-3.592l0,0c-1.003-1.003-2.458-1.401-3.834-1.053
					c-2.491,0.629-6.522,1.541-8.958,1.541h-4.78c-2.436,0-6.467-0.912-8.958-1.541c-1.376-0.347-2.831,0.05-3.834,1.053l0,0
					c-0.94,0.94-1.324,2.28-1.107,3.592c2.173,13.185-5.152,57.642-8.201,67.344c-0.627,1.994,0.446,4.057,2.378,4.856
					c9.968,4.122,11.404,18.926,11.404,18.926"/>
				<g>
					<path style="fill:#9E4477;" d="M149.382,473.056c-0.354,10.623,2.479,10.269,2.479,10.269
						c6.728,2.125,11.331,1.416,11.331,1.416c10.003,0.354,14.164-1.682,14.164-1.682c2.656-1.593,1.726-9.959,1.726-9.959
						l-7.95-238.885H149.73L149.382,473.056z"/>
				</g>
				<rect x="148.408" y="232.888" style="fill:#FFFFFF;" width="24.433" height="3.187"/>
				<g>
					<rect x="149.636" y="253.968" style="fill:#FFFFFF;" width="22.209" height="1.394"/>
					<rect x="149.603" y="272.027" style="fill:#FFFFFF;" width="22.873" height="1.394"/>
					<rect x="149.57" y="289.821" style="fill:#FFFFFF;" width="23.448" height="1.394"/>
					<rect x="149.514" y="306.286" style="fill:#FFFFFF;" width="24.079" height="1.394"/>
					<rect x="149.404" y="321.424" style="fill:#FFFFFF;" width="24.698" height="1.394"/>
					<rect x="149.404" y="335.765" style="fill:#FFFFFF;" width="25.163" height="1.394"/>
					<rect x="149.514" y="349.575" style="fill:#FFFFFF;" width="25.539" height="1.394"/>
					<rect x="149.426" y="362.588" style="fill:#FFFFFF;" width="26.004" height="1.394"/>
					<rect x="149.404" y="375.07" style="fill:#FFFFFF;" width="26.441" height="1.394"/>
					<polygon style="fill:#FFFFFF;" points="176.273,387.619 149.483,387.619 149.483,386.224 176.21,386.224 					"/>
					<polygon style="fill:#FFFFFF;" points="176.622,398.777 149.47,398.771 149.471,397.377 176.565,397.383 					"/>
					<polygon style="fill:#FFFFFF;" points="176.954,408.688 149.448,408.688 149.448,407.293 176.914,407.293 					"/>
					<rect x="149.382" y="417.031" style="fill:#FFFFFF;" width="27.93" height="1.394"/>
					<rect x="149.404" y="426.061" style="fill:#FFFFFF;" width="28.206" height="1.394"/>
					<g>
						<polygon style="fill:#FFFFFF;" points="149.435,436.307 177.857,436.307 177.811,434.913 149.437,434.913 						"/>
						<polygon style="fill:#FFFFFF;" points="149.423,444.629 178.134,444.629 178.088,443.234 149.425,443.234 						"/>
						<polygon style="fill:#FFFFFF;" points="149.412,452.065 178.382,452.065 178.335,450.671 149.414,450.671 						"/>
						<polygon style="fill:#FFFFFF;" points="149.402,459.147 178.617,459.147 178.571,457.753 149.404,457.753 						"/>
						<polygon style="fill:#FFFFFF;" points="149.392,466.229 178.853,466.229 178.807,464.835 149.394,464.835 						"/>
						<polygon style="fill:#FFFFFF;" points="149.382,472.78 179.071,472.78 179.025,471.385 149.384,471.385 						"/>
						<path style="fill:#FFFFFF;" d="M179.186,477.936h-29.708c0.046,0.514,0.105,0.974,0.172,1.394h29.399
							C179.113,478.872,179.157,478.404,179.186,477.936z"/>
					</g>
				</g>
				<g>
					<g>
						<path style="fill:#FFFFFF;" d="M151.239,201.82c0,2.053-1.665,3.718-3.718,3.718s-3.718-1.665-3.718-3.718
							c0-2.053,1.665-3.718,3.718-3.718S151.239,199.767,151.239,201.82z"/>
						<path style="fill:#C5DFDA;" d="M149.504,201.82c0,1.095-0.888,1.983-1.983,1.983c-1.095,0-1.983-0.888-1.983-1.983
							c0-1.095,0.888-1.983,1.983-1.983C148.616,199.837,149.504,200.725,149.504,201.82z"/>
						<circle style="fill:#E7F3F2;" cx="147.586" cy="201.82" r="1.363"/>
					</g>
					<g>
						<path style="fill:#FFFFFF;" d="M154.265,179.875c0,2.053-1.665,3.718-3.718,3.718s-3.718-1.665-3.718-3.718
							s1.665-3.718,3.718-3.718S154.265,177.822,154.265,179.875z"/>
						<path style="fill:#C5DFDA;" d="M152.53,179.875c0,1.095-0.888,1.983-1.983,1.983c-1.095,0-1.983-0.888-1.983-1.983
							c0-1.095,0.888-1.983,1.983-1.983C151.642,177.892,152.53,178.78,152.53,179.875z"/>
						<path style="fill:#E7F3F2;" d="M151.975,179.875c0,0.753-0.61,1.363-1.363,1.363c-0.753,0-1.363-0.61-1.363-1.363
							s0.61-1.363,1.363-1.363C151.365,178.512,151.975,179.122,151.975,179.875z"/>
					</g>
					<g>
						<path style="fill:#FFFFFF;" d="M156.567,159.054c0,2.053-1.665,3.718-3.718,3.718c-2.053,0-3.718-1.665-3.718-3.718
							c0-2.053,1.665-3.718,3.718-3.718C154.902,155.336,156.567,157.001,156.567,159.054z"/>
						<path style="fill:#C5DFDA;" d="M154.832,159.054c0,1.095-0.888,1.983-1.983,1.983c-1.095,0-1.983-0.888-1.983-1.983
							c0-1.095,0.888-1.983,1.983-1.983C153.944,157.071,154.832,157.959,154.832,159.054z"/>
						<circle style="fill:#E7F3F2;" cx="152.914" cy="159.054" r="1.363"/>
					</g>
					<g>
						<path style="fill:#FFFFFF;" d="M169.465,201.82c0,2.053,1.665,3.718,3.718,3.718c2.053,0,3.718-1.665,3.718-3.718
							c0-2.053-1.665-3.718-3.718-3.718C171.13,198.102,169.465,199.767,169.465,201.82z"/>
						<path style="fill:#C5DFDA;" d="M171.2,201.82c0,1.095,0.888,1.983,1.983,1.983s1.983-0.888,1.983-1.983
							c0-1.095-0.888-1.983-1.983-1.983S171.2,200.725,171.2,201.82z"/>
						<circle style="fill:#E7F3F2;" cx="173.118" cy="201.82" r="1.363"/>
					</g>
					<g>
						<path style="fill:#FFFFFF;" d="M166.439,179.875c0,2.053,1.665,3.718,3.718,3.718c2.053,0,3.718-1.665,3.718-3.718
							s-1.665-3.718-3.718-3.718C168.103,176.157,166.439,177.822,166.439,179.875z"/>
						<path style="fill:#C5DFDA;" d="M168.174,179.875c0,1.095,0.888,1.983,1.983,1.983c1.095,0,1.983-0.888,1.983-1.983
							c0-1.095-0.888-1.983-1.983-1.983C169.062,177.892,168.174,178.78,168.174,179.875z"/>
						<path style="fill:#E7F3F2;" d="M168.729,179.875c0,0.753,0.61,1.363,1.363,1.363c0.753,0,1.363-0.61,1.363-1.363
							s-0.61-1.363-1.363-1.363C169.339,178.512,168.729,179.122,168.729,179.875z"/>
					</g>
					<g>
						<path style="fill:#FFFFFF;" d="M164.137,159.054c0,2.053,1.665,3.718,3.718,3.718s3.718-1.665,3.718-3.718
							c0-2.053-1.665-3.718-3.718-3.718S164.137,157.001,164.137,159.054z"/>
						<path style="fill:#C5DFDA;" d="M165.872,159.054c0,1.095,0.888,1.983,1.983,1.983c1.095,0,1.983-0.888,1.983-1.983
							c0-1.095-0.888-1.983-1.983-1.983C166.76,157.071,165.872,157.959,165.872,159.054z"/>
						<circle style="fill:#E7F3F2;" cx="167.79" cy="159.054" r="1.363"/>
					</g>
				</g>
				<polygon style="fill:#D4D6C7;" points="154.551,573.301 152.203,234.531 147.648,201.617 147.911,201.581 152.467,234.512 
					154.817,573.299 				"/>
				<polygon style="fill:#D4D6C7;" points="158.623,573.301 156.275,234.53 150.656,180.721 150.921,180.693 156.54,234.515 
					158.889,573.299 				"/>
				<polygon style="fill:#D4D6C7;" points="163.049,573.301 160.701,234.53 153.135,158.766 153.4,158.74 160.966,234.516 
					163.315,573.299 				"/>
				<polygon style="fill:#D4D6C7;" points="166.857,573.301 163.58,234.355 167.298,158.569 167.564,158.583 163.846,234.36 
					167.122,573.299 				"/>
				<polygon style="fill:#D4D6C7;" points="170.928,573.302 166.812,234.399 169.423,179.461 169.689,179.474 167.078,234.404 
					171.194,573.298 				"/>
				<polygon style="fill:#D4D6C7;" points="175.089,573.302 169.335,234.532 171.902,201.589 172.168,201.609 169.6,234.541 
					175.355,573.298 				"/>
			</g>
			<path style="fill:#DFE9E1;" d="M154.681,578.052L154.681,578.052c-0.653,0-1.188-0.534-1.188-1.188v-3
				c0-0.653,0.534-1.188,1.188-1.188l0,0c0.653,0,1.188,0.534,1.188,1.188v3C155.868,577.518,155.334,578.052,154.681,578.052z"/>
			<path style="fill:#DFE9E1;" d="M158.743,578.052L158.743,578.052c-0.653,0-1.188-0.534-1.188-1.188v-3
				c0-0.653,0.534-1.188,1.188-1.188l0,0c0.653,0,1.188,0.534,1.188,1.188v3C159.931,577.518,159.397,578.052,158.743,578.052z"/>
			<path style="fill:#DFE9E1;" d="M163.118,578.052L163.118,578.052c-0.653,0-1.188-0.534-1.188-1.188v-3
				c0-0.653,0.534-1.188,1.188-1.188l0,0c0.653,0,1.188,0.534,1.188,1.188v3C164.306,577.518,163.772,578.052,163.118,578.052z"/>
			<path style="fill:#DFE9E1;" d="M166.993,578.052L166.993,578.052c-0.653,0-1.188-0.534-1.188-1.188v-3
				c0-0.653,0.534-1.188,1.188-1.188l0,0c0.653,0,1.188,0.534,1.188,1.188v3C168.181,577.518,167.647,578.052,166.993,578.052z"/>
			<path style="fill:#DFE9E1;" d="M171.118,578.052L171.118,578.052c-0.653,0-1.188-0.534-1.188-1.188v-3
				c0-0.653,0.534-1.188,1.188-1.188l0,0c0.653,0,1.188,0.534,1.188,1.188v3C172.306,577.518,171.772,578.052,171.118,578.052z"/>
			<path style="fill:#DFE9E1;" d="M175.243,578.052L175.243,578.052c-0.653,0-1.188-0.534-1.188-1.188v-3
				c0-0.653,0.534-1.188,1.188-1.188l0,0c0.653,0,1.188,0.534,1.188,1.188v3C176.431,577.518,175.897,578.052,175.243,578.052z"/>
			<circle style="fill:#DFE9E1;" cx="136.118" cy="574.677" r="1.25"/>
			<circle style="fill:#DFE9E1;" cx="192.868" cy="574.677" r="1.25"/>
			<circle style="fill:#FFBC32;" cx="185.618" cy="424.677" r="1.75"/>
			<circle style="fill:#FFBC32;" cx="210.368" cy="434.927" r="1.75"/>
			<circle style="fill:#FFBC32;" cx="215.368" cy="464.677" r="1.75"/>
			<circle style="fill:#FFBC32;" cx="203.868" cy="487.927" r="1.75"/>
		</g>
		<g>
			<path style="fill:#FF7735;" d="M643.413,412.831c0,0,45.201-3.545,57.165,20.385c11.965,23.93-7.09,61.597-1.329,80.652
				c5.761,19.055,54.728,87.742,24.151,130.284c-30.577,42.542-155.542,42.542-186.119,0
				c-30.577-42.542,18.39-111.228,24.151-130.284c5.761-19.055-13.294-56.722-1.329-80.652
				c11.965-23.93,57.165-20.385,57.165-20.385H643.413z"/>
			<path style="fill:#FFA649;" d="M643.413,406.165c0,0,45.201-3.545,57.165,20.384c11.965,23.93-7.09,61.597-1.329,80.652
				c5.761,19.055,54.728,87.742,24.151,130.284c-30.577,42.542-155.542,42.542-186.119,0
				c-30.577-42.542,18.39-111.229,24.151-130.284c5.761-19.055-13.294-56.722-1.329-80.652
				c11.965-23.93,57.165-20.384,57.165-20.384H643.413z"/>
			<g>
				<path style="fill:#66375D;" d="M613.067,483.667v-42.333c0,0-0.667-13.667-12.667-14c-12-0.333-33,6.333-30.667,29
					C572.067,479,596.401,491,597.067,510L613.067,483.667z"/>
				<circle style="fill:#FFBC32;" cx="607.401" cy="475.333" r="1.375"/>
				<circle style="fill:#FFBC32;" cx="604.734" cy="435.667" r="1.375"/>
				<circle style="fill:#FFBC32;" cx="575.401" cy="449" r="1.375"/>
				<circle style="fill:#FFBC32;" cx="594.401" cy="488" r="1.375"/>
			</g>
			<g>
				<path style="fill:#66375D;" d="M654.055,483.667v-42.333c0,0,0.667-13.667,12.667-14c12-0.333,33,6.333,30.667,29
					C695.055,479,670.721,491,670.055,510L654.055,483.667z"/>
				<circle style="fill:#FFBC32;" cx="659.721" cy="475.333" r="1.375"/>
				<circle style="fill:#FFBC32;" cx="662.388" cy="435.667" r="1.375"/>
				<circle style="fill:#FFBC32;" cx="691.721" cy="449" r="1.375"/>
				<circle style="fill:#FFBC32;" cx="672.721" cy="488" r="1.375"/>
			</g>
			<circle style="fill:#FFD07F;" cx="634.357" cy="513.927" r="39.5"/>
			<circle style="fill:#66375D;" cx="634.357" cy="513.927" r="31"/>
			<path style="fill:#9E4477;" d="M648.28,568.824h19.494v11.306h-12.476c0,0-5.458,0.39-11.696,2.729
				c-6.238,2.339-11.501,2.339-17.739,0c-6.238-2.339-11.696-2.729-11.696-2.729H601.69v-11.306h19.494H648.28z"/>
			<g>
				<g>
					<g>
						
							<rect x="606.621" y="196.749" transform="matrix(0.1776 -0.9841 0.9841 0.1776 303.128 762.3713)" style="fill:#E7F3F2;" width="2.125" height="6.156"/>
						<path style="fill:#E7F3F2;" d="M606.174,197.999l-0.035,0.913c-0.081,2.107-1.871,3.764-3.977,3.684l-0.477-0.018
							c-2.107-0.081-3.764-1.871-3.684-3.977l0.035-0.913c0.081-2.107,1.871-3.764,3.977-3.683l0.477,0.018
							C604.598,194.102,606.255,195.892,606.174,197.999z"/>
						<path style="fill:#FFFFFF;" d="M606.384,197.19l-0.035,0.913c-0.081,2.107-1.871,3.764-3.977,3.684l-0.477-0.018
							c-2.107-0.081-3.764-1.871-3.684-3.978l0.035-0.913c0.081-2.107,1.871-3.764,3.978-3.684l0.477,0.018
							C604.807,193.294,606.465,195.083,606.384,197.19z"/>
					</g>
					<g>
						
							<rect x="610.359" y="175.496" transform="matrix(0.1776 -0.9841 0.9841 0.1776 327.1265 748.575)" style="fill:#E7F3F2;" width="2.125" height="6.156"/>
						<path style="fill:#E7F3F2;" d="M609.912,176.746l-0.035,0.913c-0.081,2.107-1.871,3.764-3.977,3.684l-0.477-0.018
							c-2.107-0.081-3.764-1.871-3.683-3.978l0.035-0.913c0.081-2.107,1.871-3.764,3.977-3.684l0.477,0.018
							C608.336,172.849,609.993,174.639,609.912,176.746z"/>
						<path style="fill:#FFFFFF;" d="M610.122,175.937l-0.035,0.913c-0.081,2.107-1.871,3.764-3.978,3.684l-0.477-0.018
							c-2.107-0.081-3.764-1.871-3.683-3.978l0.035-0.913c0.081-2.107,1.871-3.764,3.978-3.683l0.477,0.018
							C608.545,172.04,610.203,173.83,610.122,175.937z"/>
					</g>
					<g>
						
							<rect x="612.641" y="154.611" transform="matrix(0.1776 -0.9841 0.9841 0.1776 349.5563 733.6439)" style="fill:#E7F3F2;" width="2.125" height="6.156"/>
						<path style="fill:#E7F3F2;" d="M612.194,155.861l-0.035,0.913c-0.081,2.107-1.871,3.764-3.977,3.684l-0.477-0.018
							c-2.107-0.081-3.764-1.871-3.684-3.977l0.035-0.913c0.081-2.107,1.871-3.764,3.977-3.684l0.477,0.018
							C610.617,151.964,612.275,153.754,612.194,155.861z"/>
						<path style="fill:#FFFFFF;" d="M612.404,155.052l-0.035,0.913c-0.081,2.107-1.871,3.764-3.978,3.683l-0.477-0.018
							c-2.107-0.081-3.764-1.871-3.684-3.977l0.035-0.913c0.081-2.107,1.871-3.764,3.977-3.684l0.477,0.018
							C610.827,151.156,612.485,152.945,612.404,155.052z"/>
					</g>
				</g>
				<g>
					<g>
						
							<rect x="649.919" y="198.765" transform="matrix(0.9841 -0.1776 0.1776 0.9841 -25.1056 119.1255)" style="fill:#E7F3F2;" width="6.156" height="2.125"/>
						<path style="fill:#E7F3F2;" d="M654.506,197.999l0.035,0.913c0.081,2.107,1.871,3.764,3.977,3.684l0.477-0.018
							c2.107-0.081,3.764-1.871,3.684-3.977l-0.035-0.913c-0.081-2.107-1.871-3.764-3.977-3.683l-0.477,0.018
							C656.083,194.102,654.425,195.892,654.506,197.999z"/>
						<path style="fill:#FFFFFF;" d="M654.296,197.19l0.035,0.913c0.081,2.107,1.871,3.764,3.978,3.684l0.477-0.018
							c2.107-0.081,3.764-1.871,3.684-3.978l-0.035-0.913c-0.081-2.107-1.871-3.764-3.978-3.684l-0.477,0.018
							C655.873,193.294,654.216,195.083,654.296,197.19z"/>
					</g>
					<g>
						
							<rect x="646.181" y="177.512" transform="matrix(0.9841 -0.1775 0.1775 0.9841 -21.39 118.1111)" style="fill:#E7F3F2;" width="6.156" height="2.125"/>
						<path style="fill:#E7F3F2;" d="M650.768,176.746l0.035,0.913c0.081,2.107,1.871,3.764,3.977,3.684l0.477-0.018
							c2.107-0.081,3.764-1.871,3.684-3.978l-0.035-0.913c-0.081-2.107-1.871-3.764-3.977-3.684l-0.477,0.018
							C652.345,172.849,650.688,174.639,650.768,176.746z"/>
						<path style="fill:#FFFFFF;" d="M650.559,175.937l0.035,0.913c0.081,2.107,1.871,3.764,3.978,3.684l0.477-0.018
							c2.107-0.081,3.764-1.871,3.683-3.978l-0.035-0.913c-0.081-2.107-1.871-3.764-3.978-3.683l-0.477,0.018
							C652.135,172.04,650.478,173.83,650.559,175.937z"/>
					</g>
					<g>
						
							<rect x="643.9" y="156.627" transform="matrix(0.9841 -0.1776 0.1776 0.9841 -17.7184 117.3764)" style="fill:#E7F3F2;" width="6.156" height="2.125"/>
						<path style="fill:#E7F3F2;" d="M648.487,155.861l0.035,0.913c0.081,2.107,1.871,3.764,3.978,3.684l0.477-0.018
							c2.107-0.081,3.764-1.871,3.684-3.977l-0.035-0.913c-0.081-2.107-1.871-3.764-3.977-3.684l-0.477,0.018
							C650.063,151.964,648.406,153.754,648.487,155.861z"/>
						<path style="fill:#FFFFFF;" d="M648.277,155.052l0.035,0.913c0.081,2.107,1.871,3.764,3.977,3.683l0.477-0.018
							c2.107-0.081,3.764-1.871,3.684-3.977l-0.035-0.913c-0.081-2.107-1.871-3.764-3.977-3.684l-0.477,0.018
							C649.853,151.156,648.196,152.945,648.277,155.052z"/>
					</g>
				</g>
				<path style="fill:#66375D;" d="M641.135,234.216c0,0,1.437-14.803,11.404-18.926c1.932-0.799,3.004-2.861,2.378-4.856
					c-3.049-9.702-10.374-54.159-8.201-67.344c0.216-1.312-0.167-2.652-1.107-3.592l0,0c-1.003-1.003-2.458-1.401-3.834-1.053
					c-2.491,0.629-6.522,1.541-8.958,1.541h-4.78c-2.436,0-6.467-0.912-8.958-1.541c-1.376-0.347-2.831,0.05-3.834,1.053l0,0
					c-0.94,0.94-1.324,2.28-1.107,3.592c2.173,13.185-5.152,57.642-8.201,67.344c-0.627,1.994,0.446,4.057,2.378,4.856
					c9.968,4.122,11.404,18.926,11.404,18.926"/>
				<g>
					<path style="fill:#9E4477;" d="M619.37,473.056c-0.354,10.623,2.479,10.269,2.479,10.269
						c6.728,2.125,11.331,1.416,11.331,1.416c10.003,0.354,14.164-1.682,14.164-1.682c2.656-1.593,1.726-9.959,1.726-9.959
						l-7.95-238.885h-21.402L619.37,473.056z"/>
				</g>
				<rect x="618.396" y="232.888" style="fill:#FFFFFF;" width="24.433" height="3.187"/>
				<g>
					<rect x="619.625" y="253.968" style="fill:#FFFFFF;" width="22.209" height="1.394"/>
					<rect x="619.591" y="272.027" style="fill:#FFFFFF;" width="22.873" height="1.394"/>
					<rect x="619.558" y="289.821" style="fill:#FFFFFF;" width="23.448" height="1.394"/>
					<rect x="619.503" y="306.286" style="fill:#FFFFFF;" width="24.079" height="1.394"/>
					<rect x="619.392" y="321.424" style="fill:#FFFFFF;" width="24.698" height="1.394"/>
					<rect x="619.392" y="335.765" style="fill:#FFFFFF;" width="25.163" height="1.394"/>
					<rect x="619.503" y="349.575" style="fill:#FFFFFF;" width="25.539" height="1.394"/>
					<rect x="619.414" y="362.588" style="fill:#FFFFFF;" width="26.004" height="1.394"/>
					<rect x="619.392" y="375.07" style="fill:#FFFFFF;" width="26.441" height="1.394"/>
					<polygon style="fill:#FFFFFF;" points="646.261,387.619 619.471,387.619 619.471,386.224 646.199,386.224 					"/>
					<polygon style="fill:#FFFFFF;" points="646.61,398.777 619.459,398.771 619.459,397.377 646.553,397.383 					"/>
					<polygon style="fill:#FFFFFF;" points="646.942,408.688 619.436,408.688 619.436,407.293 646.903,407.293 					"/>
					<rect x="619.37" y="417.031" style="fill:#FFFFFF;" width="27.93" height="1.394"/>
					<rect x="619.392" y="426.061" style="fill:#FFFFFF;" width="28.206" height="1.394"/>
					<g>
						<polygon style="fill:#FFFFFF;" points="619.424,436.307 647.846,436.307 647.799,434.913 619.426,434.913 						"/>
						<polygon style="fill:#FFFFFF;" points="619.411,444.629 648.122,444.629 648.076,443.234 619.413,443.234 						"/>
						<polygon style="fill:#FFFFFF;" points="619.401,452.065 648.37,452.065 648.324,450.671 619.403,450.671 						"/>
						<polygon style="fill:#FFFFFF;" points="619.39,459.147 648.606,459.147 648.559,457.753 619.392,457.753 						"/>
						<polygon style="fill:#FFFFFF;" points="619.38,466.229 648.841,466.229 648.795,464.835 619.382,464.835 						"/>
						<polygon style="fill:#FFFFFF;" points="619.37,472.78 649.059,472.78 649.013,471.385 619.372,471.385 						"/>
						<path style="fill:#FFFFFF;" d="M649.175,477.936h-29.708c0.046,0.514,0.105,0.974,0.172,1.394h29.399
							C649.102,478.872,649.145,478.404,649.175,477.936z"/>
					</g>
				</g>
				<g>
					<g>
						<path style="fill:#FFFFFF;" d="M621.227,201.82c0,2.053-1.665,3.718-3.718,3.718s-3.718-1.665-3.718-3.718
							c0-2.053,1.665-3.718,3.718-3.718S621.227,199.767,621.227,201.82z"/>
						<path style="fill:#C5DFDA;" d="M619.492,201.82c0,1.095-0.888,1.983-1.983,1.983s-1.983-0.888-1.983-1.983
							c0-1.095,0.888-1.983,1.983-1.983S619.492,200.725,619.492,201.82z"/>
						<circle style="fill:#E7F3F2;" cx="617.574" cy="201.82" r="1.363"/>
					</g>
					<g>
						<path style="fill:#FFFFFF;" d="M624.254,179.875c0,2.053-1.665,3.718-3.718,3.718s-3.718-1.665-3.718-3.718
							s1.665-3.718,3.718-3.718S624.254,177.822,624.254,179.875z"/>
						<path style="fill:#C5DFDA;" d="M622.518,179.875c0,1.095-0.888,1.983-1.983,1.983c-1.095,0-1.983-0.888-1.983-1.983
							c0-1.095,0.888-1.983,1.983-1.983C621.631,177.892,622.518,178.78,622.518,179.875z"/>
						<circle style="fill:#E7F3F2;" cx="620.6" cy="179.875" r="1.363"/>
					</g>
					<g>
						<path style="fill:#FFFFFF;" d="M626.555,159.054c0,2.053-1.665,3.718-3.718,3.718c-2.053,0-3.718-1.665-3.718-3.718
							c0-2.053,1.665-3.718,3.718-3.718C624.891,155.336,626.555,157.001,626.555,159.054z"/>
						<path style="fill:#C5DFDA;" d="M624.82,159.054c0,1.095-0.888,1.983-1.983,1.983s-1.983-0.888-1.983-1.983
							c0-1.095,0.888-1.983,1.983-1.983S624.82,157.959,624.82,159.054z"/>
						<circle style="fill:#E7F3F2;" cx="622.902" cy="159.054" r="1.363"/>
					</g>
					<g>
						<path style="fill:#FFFFFF;" d="M639.453,201.82c0,2.053,1.665,3.718,3.718,3.718s3.718-1.665,3.718-3.718
							c0-2.053-1.665-3.718-3.718-3.718S639.453,199.767,639.453,201.82z"/>
						<path style="fill:#C5DFDA;" d="M641.188,201.82c0,1.095,0.888,1.983,1.983,1.983c1.095,0,1.983-0.888,1.983-1.983
							c0-1.095-0.888-1.983-1.983-1.983C642.076,199.837,641.188,200.725,641.188,201.82z"/>
						<circle style="fill:#E7F3F2;" cx="643.107" cy="201.82" r="1.363"/>
					</g>
					<g>
						<path style="fill:#FFFFFF;" d="M636.427,179.875c0,2.053,1.665,3.718,3.718,3.718c2.053,0,3.718-1.665,3.718-3.718
							s-1.665-3.718-3.718-3.718C638.092,176.157,636.427,177.822,636.427,179.875z"/>
						<path style="fill:#C5DFDA;" d="M638.162,179.875c0,1.095,0.888,1.983,1.983,1.983c1.095,0,1.983-0.888,1.983-1.983
							c0-1.095-0.888-1.983-1.983-1.983C639.05,177.892,638.162,178.78,638.162,179.875z"/>
						<path style="fill:#E7F3F2;" d="M638.717,179.875c0,0.753,0.61,1.363,1.363,1.363c0.753,0,1.363-0.61,1.363-1.363
							s-0.61-1.363-1.363-1.363C639.327,178.512,638.717,179.122,638.717,179.875z"/>
					</g>
					<g>
						<path style="fill:#FFFFFF;" d="M634.125,159.054c0,2.053,1.665,3.718,3.718,3.718s3.718-1.665,3.718-3.718
							c0-2.053-1.665-3.718-3.718-3.718S634.125,157.001,634.125,159.054z"/>
						<path style="fill:#C5DFDA;" d="M635.861,159.054c0,1.095,0.888,1.983,1.983,1.983c1.095,0,1.983-0.888,1.983-1.983
							c0-1.095-0.888-1.983-1.983-1.983C636.748,157.071,635.861,157.959,635.861,159.054z"/>
						<circle style="fill:#E7F3F2;" cx="637.779" cy="159.054" r="1.363"/>
					</g>
				</g>
				<polygon style="fill:#D4D6C7;" points="624.54,573.301 622.191,234.531 617.636,201.617 617.899,201.581 622.456,234.512 
					624.805,573.299 				"/>
				<polygon style="fill:#D4D6C7;" points="628.612,573.301 626.263,234.53 620.645,180.721 620.909,180.693 626.528,234.515 
					628.877,573.299 				"/>
				<polygon style="fill:#D4D6C7;" points="633.038,573.301 630.69,234.53 623.124,158.766 623.388,158.74 630.954,234.516 
					633.303,573.299 				"/>
				<polygon style="fill:#D4D6C7;" points="636.845,573.301 633.569,234.355 637.287,158.569 637.552,158.583 633.834,234.36 
					637.11,573.299 				"/>
				<polygon style="fill:#D4D6C7;" points="640.917,573.302 636.8,234.399 639.411,179.461 639.677,179.474 637.066,234.404 
					641.182,573.298 				"/>
				<polygon style="fill:#D4D6C7;" points="645.078,573.302 639.323,234.532 641.891,201.589 642.156,201.609 639.589,234.541 
					645.343,573.298 				"/>
			</g>
			<path style="fill:#DFE9E1;" d="M624.669,578.052L624.669,578.052c-0.653,0-1.188-0.534-1.188-1.188v-3
				c0-0.653,0.534-1.188,1.188-1.188l0,0c0.653,0,1.188,0.534,1.188,1.188v3C625.857,577.518,625.323,578.052,624.669,578.052z"/>
			<path style="fill:#DFE9E1;" d="M628.732,578.052L628.732,578.052c-0.653,0-1.188-0.534-1.188-1.188v-3
				c0-0.653,0.534-1.188,1.188-1.188l0,0c0.653,0,1.188,0.534,1.188,1.188v3C629.919,577.518,629.385,578.052,628.732,578.052z"/>
			<path style="fill:#DFE9E1;" d="M633.107,578.052L633.107,578.052c-0.653,0-1.188-0.534-1.188-1.188v-3
				c0-0.653,0.534-1.188,1.188-1.188l0,0c0.653,0,1.188,0.534,1.188,1.188v3C634.294,577.518,633.76,578.052,633.107,578.052z"/>
			<path style="fill:#DFE9E1;" d="M636.982,578.052L636.982,578.052c-0.653,0-1.188-0.534-1.188-1.188v-3
				c0-0.653,0.534-1.188,1.188-1.188l0,0c0.653,0,1.188,0.534,1.188,1.188v3C638.169,577.518,637.635,578.052,636.982,578.052z"/>
			<path style="fill:#DFE9E1;" d="M641.107,578.052L641.107,578.052c-0.653,0-1.188-0.534-1.188-1.188v-3
				c0-0.653,0.534-1.188,1.188-1.188l0,0c0.653,0,1.188,0.534,1.188,1.188v3C642.294,577.518,641.76,578.052,641.107,578.052z"/>
			<path style="fill:#DFE9E1;" d="M645.232,578.052L645.232,578.052c-0.653,0-1.188-0.534-1.188-1.188v-3
				c0-0.653,0.534-1.188,1.188-1.188l0,0c0.653,0,1.188,0.534,1.188,1.188v3C646.419,577.518,645.885,578.052,645.232,578.052z"/>
			<circle style="fill:#DFE9E1;" cx="606.107" cy="574.677" r="1.25"/>
			<circle style="fill:#DFE9E1;" cx="662.857" cy="574.677" r="1.25"/>
			<g>
				<path style="fill:#66375D;" d="M588.459,631.49c0,0,10.539-2.424,17.82,3.199c7.281,5.623,12.224,11.829,14.535,9.897
					c2.311-1.932,1.337-5.193-0.837-4.544s-2.409,1.701-4.212,0.016c-1.803-1.685-5.158-9.925-17.116-14.383
					c0,0-5.095-1.107-6.765-3.121l-0.033,0.056c0,0-10.539,2.424-17.82-3.199c-7.281-5.623-12.224-11.829-14.535-9.897
					c-2.311,1.932-1.337,5.193,0.837,4.544c2.174-0.649,2.409-1.701,4.212-0.016c1.803,1.685,5.158,9.925,17.116,14.383
					c0,0,5.095,1.107,6.765,3.121L588.459,631.49z"/>
				<path style="fill:#66375D;" d="M678.518,631.49c0,0-10.539-2.424-17.82,3.199c-7.281,5.623-12.224,11.829-14.535,9.897
					c-2.311-1.932-1.337-5.193,0.837-4.544s2.409,1.701,4.211,0.016c1.803-1.685,5.158-9.925,17.116-14.383
					c0,0,5.095-1.107,6.765-3.121l0.033,0.056c0,0,10.539,2.424,17.82-3.199c7.281-5.623,12.224-11.829,14.535-9.897
					c2.311,1.932,1.337,5.193-0.837,4.544c-2.174-0.649-2.409-1.701-4.212-0.016c-1.803,1.685-5.158,9.925-17.116,14.383
					c0,0-5.095,1.107-6.765,3.121L678.518,631.49z"/>
			</g>
		</g>
		<g>
			<path style="fill:#4B373B;" d="M411.413,412.831c0,0,45.201-3.545,57.165,20.385c11.965,23.93-7.09,61.597-1.329,80.652
				c5.761,19.055,54.728,87.742,24.151,130.284c-30.577,42.542-155.542,42.542-186.119,0
				c-30.577-42.542,18.39-111.228,24.151-130.284c5.761-19.055-13.294-56.722-1.329-80.652
				c11.965-23.93,57.165-20.385,57.165-20.385H411.413z"/>
			<path style="fill:#66375D;" d="M411.413,406.165c0,0,45.201-3.545,57.165,20.384c11.965,23.93-7.09,61.597-1.329,80.652
				c5.761,19.055,54.728,87.742,24.151,130.284c-30.577,42.542-155.542,42.542-186.119,0
				c-30.577-42.542,18.39-111.229,24.151-130.284c5.761-19.055-13.294-56.722-1.329-80.652
				c11.965-23.93,57.165-20.384,57.165-20.384H411.413z"/>
			<circle style="fill:#C2A476;" cx="402.357" cy="513.927" r="39.5"/>
			<circle style="fill:#463747;" cx="402.357" cy="513.927" r="31"/>
			<g>
				<path style="fill:#9E4477;" d="M416.28,603.574h19.494v11.306h-12.476c0,0-5.458,0.39-11.696,2.729
					c-6.238,2.339-11.501,2.339-17.739,0c-6.238-2.339-11.696-2.729-11.696-2.729H369.69v-11.306h19.494H416.28z"/>
				<path style="fill:#DFE9E1;" d="M392.669,612.802L392.669,612.802c-0.653,0-1.188-0.534-1.188-1.188v-3
					c0-0.653,0.534-1.188,1.188-1.188l0,0c0.653,0,1.188,0.534,1.188,1.188v3C393.857,612.268,393.322,612.802,392.669,612.802z"/>
				<path style="fill:#DFE9E1;" d="M396.732,612.802L396.732,612.802c-0.653,0-1.188-0.534-1.188-1.188v-3
					c0-0.653,0.534-1.188,1.188-1.188l0,0c0.653,0,1.188,0.534,1.188,1.188v3C397.919,612.268,397.385,612.802,396.732,612.802z"/>
				<path style="fill:#DFE9E1;" d="M401.107,612.802L401.107,612.802c-0.653,0-1.188-0.534-1.188-1.188v-3
					c0-0.653,0.534-1.188,1.188-1.188l0,0c0.653,0,1.188,0.534,1.188,1.188v3C402.294,612.268,401.76,612.802,401.107,612.802z"/>
				<path style="fill:#DFE9E1;" d="M404.982,612.802L404.982,612.802c-0.653,0-1.188-0.534-1.188-1.188v-3
					c0-0.653,0.534-1.188,1.188-1.188l0,0c0.653,0,1.188,0.534,1.188,1.188v3C406.169,612.268,405.635,612.802,404.982,612.802z"/>
				<path style="fill:#DFE9E1;" d="M409.107,612.802L409.107,612.802c-0.653,0-1.188-0.534-1.188-1.188v-3
					c0-0.653,0.534-1.188,1.188-1.188l0,0c0.653,0,1.188,0.534,1.188,1.188v3C410.294,612.268,409.76,612.802,409.107,612.802z"/>
				<path style="fill:#DFE9E1;" d="M413.232,612.802L413.232,612.802c-0.653,0-1.188-0.534-1.188-1.188v-3
					c0-0.653,0.534-1.188,1.188-1.188l0,0c0.653,0,1.188,0.534,1.188,1.188v3C414.419,612.268,413.885,612.802,413.232,612.802z"/>
				<circle style="fill:#DFE9E1;" cx="374.107" cy="609.427" r="1.25"/>
				<circle style="fill:#DFE9E1;" cx="430.857" cy="609.427" r="1.25"/>
			</g>
			<g>
				<g>
					<g>
						
							<rect x="374.621" y="196.749" transform="matrix(0.1776 -0.9841 0.9841 0.1776 112.3233 534.058)" style="fill:#E7F3F2;" width="2.125" height="6.156"/>
						<path style="fill:#E7F3F2;" d="M374.174,197.999l-0.035,0.913c-0.081,2.107-1.871,3.764-3.977,3.684l-0.477-0.018
							c-2.107-0.081-3.764-1.871-3.684-3.977l0.035-0.913c0.081-2.107,1.871-3.764,3.978-3.683l0.477,0.018
							C372.598,194.102,374.255,195.892,374.174,197.999z"/>
						<path style="fill:#FFFFFF;" d="M374.384,197.19l-0.035,0.913c-0.081,2.107-1.871,3.764-3.977,3.684l-0.477-0.018
							c-2.107-0.081-3.764-1.871-3.684-3.978l0.035-0.913c0.081-2.107,1.871-3.764,3.977-3.684l0.477,0.018
							C372.807,193.294,374.465,195.083,374.384,197.19z"/>
					</g>
					<g>
						
							<rect x="378.359" y="175.496" transform="matrix(0.1776 -0.9841 0.9841 0.1776 136.3182 520.2611)" style="fill:#E7F3F2;" width="2.125" height="6.156"/>
						<path style="fill:#E7F3F2;" d="M377.912,176.746l-0.035,0.913c-0.081,2.107-1.871,3.764-3.978,3.684l-0.477-0.018
							c-2.107-0.081-3.764-1.871-3.683-3.978l0.035-0.913c0.081-2.107,1.871-3.764,3.978-3.684l0.477,0.018
							C376.336,172.849,377.993,174.639,377.912,176.746z"/>
						<path style="fill:#FFFFFF;" d="M378.122,175.937l-0.035,0.913c-0.081,2.107-1.871,3.764-3.978,3.684l-0.477-0.018
							c-2.107-0.081-3.764-1.871-3.684-3.978l0.035-0.913c0.081-2.107,1.871-3.764,3.978-3.683l0.477,0.018
							C376.545,172.04,378.203,173.83,378.122,175.937z"/>
					</g>
					<g>
						
							<rect x="380.641" y="154.611" transform="matrix(0.1776 -0.9841 0.9841 0.1776 158.7479 505.33)" style="fill:#E7F3F2;" width="2.125" height="6.156"/>
						<path style="fill:#E7F3F2;" d="M380.194,155.861l-0.035,0.913c-0.081,2.107-1.871,3.764-3.977,3.684l-0.477-0.018
							c-2.107-0.081-3.764-1.871-3.684-3.977l0.035-0.913c0.081-2.107,1.871-3.764,3.978-3.684l0.477,0.018
							C378.617,151.964,380.275,153.754,380.194,155.861z"/>
						<path style="fill:#FFFFFF;" d="M380.404,155.052l-0.035,0.913c-0.081,2.107-1.871,3.764-3.978,3.683l-0.477-0.018
							c-2.107-0.081-3.764-1.871-3.684-3.977l0.035-0.913c0.081-2.107,1.871-3.764,3.978-3.684l0.477,0.018
							C378.827,151.156,380.485,152.945,380.404,155.052z"/>
					</g>
				</g>
				<g>
					<g>
						
							<rect x="417.919" y="198.765" transform="matrix(0.9841 -0.1776 0.1776 0.9841 -28.7924 77.9302)" style="fill:#E7F3F2;" width="6.156" height="2.125"/>
						<path style="fill:#E7F3F2;" d="M422.506,197.999l0.035,0.913c0.081,2.107,1.871,3.764,3.977,3.684l0.477-0.018
							c2.107-0.081,3.764-1.871,3.683-3.977l-0.035-0.913c-0.081-2.107-1.871-3.764-3.978-3.683l-0.477,0.018
							C424.083,194.102,422.425,195.892,422.506,197.999z"/>
						<path style="fill:#FFFFFF;" d="M422.296,197.19l0.035,0.913c0.081,2.107,1.871,3.764,3.978,3.684l0.477-0.018
							c2.107-0.081,3.764-1.871,3.684-3.978l-0.035-0.913c-0.081-2.107-1.871-3.764-3.978-3.684l-0.477,0.018
							C423.873,193.294,422.216,195.083,422.296,197.19z"/>
					</g>
					<g>
						
							<rect x="414.181" y="177.512" transform="matrix(0.9841 -0.1775 0.1775 0.9841 -25.076 76.9203)" style="fill:#E7F3F2;" width="6.156" height="2.125"/>
						<path style="fill:#E7F3F2;" d="M418.768,176.746l0.035,0.913c0.081,2.107,1.871,3.764,3.978,3.684l0.477-0.018
							c2.107-0.081,3.764-1.871,3.684-3.978l-0.035-0.913c-0.081-2.107-1.871-3.764-3.977-3.684l-0.477,0.018
							C420.345,172.849,418.688,174.639,418.768,176.746z"/>
						<path style="fill:#FFFFFF;" d="M418.559,175.937l0.035,0.913c0.081,2.107,1.871,3.764,3.977,3.684l0.477-0.018
							c2.107-0.081,3.764-1.871,3.684-3.978l-0.035-0.913c-0.081-2.107-1.871-3.764-3.978-3.683l-0.477,0.018
							C420.135,172.04,418.478,173.83,418.559,175.937z"/>
					</g>
					<g>
						
							<rect x="411.9" y="156.627" transform="matrix(0.9841 -0.1776 0.1776 0.9841 -21.4045 76.1847)" style="fill:#E7F3F2;" width="6.156" height="2.125"/>
						<path style="fill:#E7F3F2;" d="M416.486,155.861l0.035,0.913c0.081,2.107,1.871,3.764,3.978,3.684l0.477-0.018
							c2.107-0.081,3.764-1.871,3.684-3.977l-0.035-0.913c-0.081-2.107-1.871-3.764-3.978-3.684l-0.477,0.018
							C418.063,151.964,416.406,153.754,416.486,155.861z"/>
						<path style="fill:#FFFFFF;" d="M416.277,155.052l0.035,0.913c0.081,2.107,1.871,3.764,3.978,3.683l0.477-0.018
							c2.107-0.081,3.764-1.871,3.684-3.977l-0.035-0.913c-0.081-2.107-1.871-3.764-3.978-3.684l-0.477,0.018
							C417.853,151.156,416.196,152.945,416.277,155.052z"/>
					</g>
				</g>
				<path style="fill:#66375D;" d="M409.135,234.216c0,0,1.437-14.803,11.404-18.926c1.932-0.799,3.004-2.861,2.378-4.856
					c-3.049-9.702-10.374-54.159-8.201-67.344c0.216-1.312-0.167-2.652-1.107-3.592l0,0c-1.003-1.003-2.458-1.401-3.834-1.053
					c-2.491,0.629-6.522,1.541-8.958,1.541h-4.78c-2.436,0-6.467-0.912-8.958-1.541c-1.376-0.347-2.831,0.05-3.834,1.053l0,0
					c-0.94,0.94-1.324,2.28-1.107,3.592c2.173,13.185-5.152,57.642-8.201,67.344c-0.627,1.994,0.446,4.057,2.378,4.856
					c9.968,4.122,11.404,18.926,11.404,18.926"/>
				<g>
					<path style="fill:#9E4477;" d="M387.37,473.056c-0.354,10.623,2.479,10.269,2.479,10.269
						c6.728,2.125,11.331,1.416,11.331,1.416c10.003,0.354,14.164-1.682,14.164-1.682c2.656-1.593,1.726-9.959,1.726-9.959
						l-7.95-238.885h-21.402L387.37,473.056z"/>
				</g>
				<rect x="386.396" y="232.888" style="fill:#FFFFFF;" width="24.433" height="3.187"/>
				<g>
					<rect x="387.624" y="253.968" style="fill:#FFFFFF;" width="22.209" height="1.394"/>
					<rect x="387.591" y="272.027" style="fill:#FFFFFF;" width="22.873" height="1.394"/>
					<rect x="387.558" y="289.821" style="fill:#FFFFFF;" width="23.448" height="1.394"/>
					<rect x="387.503" y="306.286" style="fill:#FFFFFF;" width="24.079" height="1.394"/>
					<rect x="387.392" y="321.424" style="fill:#FFFFFF;" width="24.698" height="1.394"/>
					<rect x="387.392" y="335.765" style="fill:#FFFFFF;" width="25.163" height="1.394"/>
					<rect x="387.503" y="349.575" style="fill:#FFFFFF;" width="25.539" height="1.394"/>
					<rect x="387.414" y="362.588" style="fill:#FFFFFF;" width="26.004" height="1.394"/>
					<rect x="387.392" y="375.07" style="fill:#FFFFFF;" width="26.441" height="1.394"/>
					<polygon style="fill:#FFFFFF;" points="414.261,387.619 387.471,387.619 387.471,386.224 414.199,386.224 					"/>
					<polygon style="fill:#FFFFFF;" points="414.61,398.777 387.459,398.771 387.459,397.377 414.553,397.383 					"/>
					<polygon style="fill:#FFFFFF;" points="414.942,408.688 387.436,408.688 387.436,407.293 414.903,407.293 					"/>
					<rect x="387.37" y="417.031" style="fill:#FFFFFF;" width="27.93" height="1.394"/>
					<rect x="387.392" y="426.061" style="fill:#FFFFFF;" width="28.206" height="1.394"/>
					<g>
						<polygon style="fill:#FFFFFF;" points="387.424,436.307 415.846,436.307 415.799,434.913 387.426,434.913 						"/>
						<polygon style="fill:#FFFFFF;" points="387.411,444.629 416.122,444.629 416.076,443.234 387.413,443.234 						"/>
						<polygon style="fill:#FFFFFF;" points="387.401,452.065 416.37,452.065 416.324,450.671 387.403,450.671 						"/>
						<polygon style="fill:#FFFFFF;" points="387.39,459.147 416.606,459.147 416.559,457.753 387.392,457.753 						"/>
						<polygon style="fill:#FFFFFF;" points="387.38,466.229 416.841,466.229 416.795,464.835 387.382,464.835 						"/>
						<polygon style="fill:#FFFFFF;" points="387.37,472.78 417.059,472.78 417.013,471.385 387.372,471.385 						"/>
						<path style="fill:#FFFFFF;" d="M417.175,477.936h-29.708c0.047,0.514,0.105,0.974,0.172,1.394h29.399
							C417.102,478.872,417.145,478.404,417.175,477.936z"/>
					</g>
				</g>
				<g>
					<g>
						<path style="fill:#FFFFFF;" d="M389.227,201.82c0,2.053-1.665,3.718-3.718,3.718s-3.718-1.665-3.718-3.718
							c0-2.053,1.665-3.718,3.718-3.718S389.227,199.767,389.227,201.82z"/>
						<path style="fill:#C5DFDA;" d="M387.492,201.82c0,1.095-0.888,1.983-1.983,1.983c-1.095,0-1.983-0.888-1.983-1.983
							c0-1.095,0.888-1.983,1.983-1.983C386.605,199.837,387.492,200.725,387.492,201.82z"/>
						<circle style="fill:#E7F3F2;" cx="385.574" cy="201.82" r="1.363"/>
					</g>
					<g>
						<path style="fill:#FFFFFF;" d="M392.254,179.875c0,2.053-1.665,3.718-3.718,3.718s-3.718-1.665-3.718-3.718
							s1.665-3.718,3.718-3.718S392.254,177.822,392.254,179.875z"/>
						<path style="fill:#C5DFDA;" d="M390.518,179.875c0,1.095-0.888,1.983-1.983,1.983c-1.095,0-1.983-0.888-1.983-1.983
							c0-1.095,0.888-1.983,1.983-1.983C389.631,177.892,390.518,178.78,390.518,179.875z"/>
						<circle style="fill:#E7F3F2;" cx="388.6" cy="179.875" r="1.363"/>
					</g>
					<g>
						<path style="fill:#FFFFFF;" d="M394.555,159.054c0,2.053-1.665,3.718-3.718,3.718c-2.053,0-3.718-1.665-3.718-3.718
							c0-2.053,1.665-3.718,3.718-3.718C392.891,155.336,394.555,157.001,394.555,159.054z"/>
						<path style="fill:#C5DFDA;" d="M392.82,159.054c0,1.095-0.888,1.983-1.983,1.983c-1.095,0-1.983-0.888-1.983-1.983
							c0-1.095,0.888-1.983,1.983-1.983C391.932,157.071,392.82,157.959,392.82,159.054z"/>
						<circle style="fill:#E7F3F2;" cx="390.902" cy="159.054" r="1.363"/>
					</g>
					<g>
						<path style="fill:#FFFFFF;" d="M407.453,201.82c0,2.053,1.665,3.718,3.718,3.718c2.053,0,3.718-1.665,3.718-3.718
							c0-2.053-1.665-3.718-3.718-3.718C409.118,198.102,407.453,199.767,407.453,201.82z"/>
						<path style="fill:#C5DFDA;" d="M409.188,201.82c0,1.095,0.888,1.983,1.983,1.983c1.095,0,1.983-0.888,1.983-1.983
							c0-1.095-0.888-1.983-1.983-1.983C410.076,199.837,409.188,200.725,409.188,201.82z"/>
						<circle style="fill:#E7F3F2;" cx="411.106" cy="201.82" r="1.363"/>
					</g>
					<g>
						<path style="fill:#FFFFFF;" d="M404.427,179.875c0,2.053,1.665,3.718,3.718,3.718c2.053,0,3.718-1.665,3.718-3.718
							s-1.665-3.718-3.718-3.718C406.092,176.157,404.427,177.822,404.427,179.875z"/>
						<path style="fill:#C5DFDA;" d="M406.162,179.875c0,1.095,0.888,1.983,1.983,1.983c1.095,0,1.983-0.888,1.983-1.983
							c0-1.095-0.888-1.983-1.983-1.983C407.05,177.892,406.162,178.78,406.162,179.875z"/>
						<path style="fill:#E7F3F2;" d="M406.717,179.875c0,0.753,0.61,1.363,1.363,1.363c0.753,0,1.363-0.61,1.363-1.363
							s-0.61-1.363-1.363-1.363C407.327,178.512,406.717,179.122,406.717,179.875z"/>
					</g>
					<g>
						<path style="fill:#FFFFFF;" d="M402.125,159.054c0,2.053,1.665,3.718,3.718,3.718c2.053,0,3.718-1.665,3.718-3.718
							c0-2.053-1.665-3.718-3.718-3.718C403.79,155.336,402.125,157.001,402.125,159.054z"/>
						<path style="fill:#C5DFDA;" d="M403.861,159.054c0,1.095,0.888,1.983,1.983,1.983c1.095,0,1.983-0.888,1.983-1.983
							c0-1.095-0.888-1.983-1.983-1.983C404.748,157.071,403.861,157.959,403.861,159.054z"/>
						<circle style="fill:#E7F3F2;" cx="405.779" cy="159.054" r="1.363"/>
					</g>
				</g>
				<polygon style="fill:#D4D6C7;" points="392.54,609.666 390.191,234.531 385.636,201.617 385.899,201.581 390.456,234.512 
					392.805,609.664 				"/>
				<polygon style="fill:#D4D6C7;" points="396.612,609.666 394.263,234.53 388.645,180.721 388.909,180.693 394.528,234.515 
					396.877,609.664 				"/>
				<polygon style="fill:#D4D6C7;" points="401.038,609.666 398.689,234.53 391.124,158.766 391.388,158.74 398.954,234.516 
					401.303,609.664 				"/>
				<polygon style="fill:#D4D6C7;" points="404.845,609.666 401.569,234.355 405.287,158.569 405.552,158.583 401.834,234.36 
					405.111,609.664 				"/>
				<polygon style="fill:#D4D6C7;" points="408.917,609.667 404.8,234.399 407.411,179.461 407.677,179.474 405.066,234.404 
					409.182,609.662 				"/>
				<polygon style="fill:#D4D6C7;" points="413.078,609.667 407.323,234.532 409.891,201.589 410.156,201.609 407.589,234.541 
					413.343,609.662 				"/>
			</g>
			<path style="fill:#463747;" d="M429.734,472.667c0,0-8.667-11.333,1.667-19.333c10.333-8,17-13.333,13.667-18.333
				c0,0-4.667,2.333-5.333-0.667c-0.667-3,4.439-4.974,8.333-4c4,1,6.333,7.667,1,15.333c-3.122,4.488-10.437,10.011-6,16
				C449.734,470.667,440.401,483,429.734,472.667z"/>
			<path style="fill:#463747;" d="M372.773,472.667c0,0,8.667-11.333-1.667-19.333c-10.333-8-17-13.333-13.667-18.333
				c0,0,4.667,2.333,5.333-0.667c0.667-3-4.439-4.974-8.333-4c-4,1-6.333,7.667-1,15.333c3.122,4.488,10.437,10.011,6,16
				C352.773,470.667,362.107,483,372.773,472.667z"/>
			<circle style="fill:#66375D;" cx="425.067" cy="540.667" r="2"/>
			<circle style="fill:#66375D;" cx="379.401" cy="540.667" r="2"/>
		</g>
	</g>
</g>
<g id="Designed_By_Freepik">
	<g>
		<g>
			<g>
				<path style="fill:#CF375D;" d="M288.492,765.607v-0.257c-0.349,0.398-0.692,0.724-1.03,0.973
					c-0.339,0.251-0.707,0.441-1.102,0.57c-0.396,0.132-0.827,0.195-1.296,0.195c-0.621,0-1.195-0.131-1.725-0.394
					c-0.528-0.263-0.986-0.639-1.371-1.126c-0.388-0.487-0.68-1.059-0.879-1.719c-0.199-0.659-0.3-1.371-0.3-2.137
					c0-1.621,0.396-2.886,1.188-3.791c0.792-0.904,1.833-1.357,3.125-1.357c0.747,0,1.377,0.129,1.89,0.384
					c0.514,0.257,1.014,0.652,1.501,1.183v-3.827c0-0.532,0.105-0.934,0.318-1.206c0.212-0.272,0.514-0.408,0.907-0.408
					c0.393,0,0.693,0.125,0.906,0.375c0.213,0.251,0.318,0.618,0.318,1.106v11.436c0,0.494-0.113,0.864-0.342,1.111
					c-0.228,0.246-0.521,0.37-0.883,0.37c-0.355,0-0.648-0.128-0.879-0.384C288.607,766.447,288.492,766.082,288.492,765.607z
					 M283.392,761.799c0,0.703,0.109,1.301,0.328,1.795c0.219,0.494,0.518,0.866,0.896,1.115c0.381,0.251,0.795,0.377,1.244,0.377
					c0.457,0,0.873-0.119,1.25-0.357c0.377-0.236,0.678-0.602,0.902-1.091c0.225-0.491,0.336-1.105,0.336-1.839
					c0-0.69-0.111-1.284-0.336-1.782c-0.225-0.496-0.528-0.876-0.912-1.14c-0.383-0.262-0.803-0.393-1.258-0.393
					c-0.475,0-0.899,0.135-1.273,0.403c-0.373,0.269-0.663,0.654-0.869,1.158C283.494,760.55,283.392,761.134,283.392,761.799z"/>
				<path style="fill:#CF375D;" d="M299.926,762.455h-5.071c0.006,0.588,0.125,1.107,0.356,1.557c0.23,0.45,0.538,0.789,0.921,1.017
					c0.383,0.228,0.807,0.341,1.269,0.341c0.31,0,0.593-0.035,0.85-0.107c0.257-0.074,0.505-0.187,0.746-0.343
					c0.241-0.154,0.462-0.321,0.665-0.499c0.201-0.178,0.464-0.419,0.787-0.723c0.133-0.113,0.324-0.171,0.571-0.171
					c0.266,0,0.48,0.074,0.645,0.22c0.165,0.146,0.248,0.351,0.248,0.617c0,0.234-0.093,0.507-0.275,0.821
					c-0.185,0.313-0.462,0.614-0.831,0.902c-0.372,0.288-0.836,0.526-1.397,0.717c-0.56,0.19-1.204,0.285-1.933,0.285
					c-1.664,0-2.96-0.476-3.885-1.425c-0.924-0.949-1.386-2.238-1.386-3.865c0-0.767,0.113-1.478,0.342-2.132
					c0.228-0.656,0.56-1.218,0.997-1.686c0.437-0.469,0.975-0.827,1.615-1.078c0.639-0.25,1.348-0.374,2.127-0.374
					c1.013,0,1.882,0.212,2.605,0.641c0.727,0.427,1.27,0.979,1.631,1.656c0.359,0.678,0.541,1.369,0.541,2.07
					c0,0.653-0.188,1.075-0.561,1.269C301.13,762.357,300.604,762.455,299.926,762.455z M294.854,760.982h4.701
					c-0.063-0.887-0.303-1.551-0.717-1.99c-0.415-0.44-0.961-0.66-1.639-0.66c-0.646,0-1.176,0.223-1.59,0.669
					C295.194,759.447,294.944,760.108,294.854,760.982z"/>
				<path style="fill:#CF375D;" d="M311.741,763.697c0,0.716-0.174,1.329-0.523,1.839c-0.348,0.51-0.861,0.897-1.543,1.159
					c-0.68,0.263-1.508,0.394-2.483,0.394c-0.931,0-1.729-0.143-2.394-0.428c-0.664-0.284-1.156-0.642-1.472-1.067
					c-0.317-0.429-0.476-0.857-0.476-1.288c0-0.285,0.102-0.528,0.305-0.731c0.202-0.202,0.459-0.304,0.77-0.304
					c0.271,0,0.48,0.066,0.626,0.199c0.146,0.133,0.286,0.32,0.417,0.56c0.267,0.464,0.586,0.807,0.956,1.036
					c0.37,0.227,0.874,0.342,1.515,0.342c0.52,0,0.945-0.116,1.277-0.347c0.332-0.232,0.498-0.496,0.498-0.794
					c0-0.456-0.172-0.787-0.518-0.996c-0.345-0.209-0.913-0.409-1.705-0.6c-0.893-0.221-1.619-0.454-2.18-0.698
					c-0.56-0.242-1.008-0.564-1.344-0.963c-0.335-0.399-0.503-0.891-0.503-1.473c0-0.519,0.155-1.01,0.466-1.473
					c0.31-0.461,0.767-0.83,1.373-1.105c0.604-0.276,1.333-0.414,2.188-0.414c0.672,0,1.275,0.069,1.81,0.21
					c0.536,0.138,0.983,0.326,1.34,0.56c0.358,0.233,0.63,0.493,0.816,0.777c0.187,0.285,0.28,0.563,0.28,0.837
					c0,0.297-0.1,0.541-0.299,0.731c-0.199,0.188-0.482,0.285-0.851,0.285c-0.267,0-0.492-0.076-0.679-0.23
					c-0.186-0.151-0.4-0.379-0.641-0.683c-0.197-0.253-0.427-0.456-0.693-0.608c-0.266-0.152-0.627-0.228-1.084-0.228
					c-0.469,0-0.857,0.099-1.168,0.3c-0.309,0.198-0.465,0.446-0.465,0.744c0,0.273,0.113,0.496,0.342,0.67
					c0.228,0.175,0.535,0.319,0.922,0.433c0.387,0.113,0.917,0.252,1.596,0.417c0.803,0.197,1.46,0.432,1.971,0.703
					c0.509,0.271,0.895,0.594,1.159,0.965C311.61,762.801,311.741,763.223,311.741,763.697z"/>
				<path style="fill:#CF375D;" d="M314.39,755.341c-0.361,0-0.67-0.111-0.926-0.333c-0.256-0.221-0.385-0.534-0.385-0.94
					c0-0.368,0.131-0.669,0.395-0.907c0.262-0.238,0.568-0.357,0.916-0.357c0.336,0,0.633,0.107,0.893,0.323
					c0.26,0.216,0.391,0.528,0.391,0.94c0,0.399-0.128,0.711-0.381,0.936C315.038,755.227,314.737,755.341,314.39,755.341z
					 M315.673,758.019v7.493c0,0.52-0.124,0.913-0.371,1.179c-0.248,0.266-0.561,0.398-0.94,0.398c-0.38,0-0.688-0.136-0.927-0.408
					c-0.237-0.273-0.355-0.662-0.355-1.169v-7.418c0-0.512,0.118-0.898,0.355-1.158c0.238-0.26,0.547-0.39,0.927-0.39
					c0.38,0,0.692,0.13,0.94,0.39C315.549,757.195,315.673,757.557,315.673,758.019z"/>
				<path style="fill:#CF375D;" d="M327.031,758.446v7.531c0,0.861-0.093,1.603-0.276,2.224c-0.183,0.619-0.478,1.133-0.883,1.538
					c-0.406,0.404-0.936,0.706-1.591,0.901c-0.655,0.197-1.471,0.295-2.446,0.295c-0.893,0-1.69-0.125-2.394-0.375
					c-0.702-0.251-1.243-0.573-1.624-0.969c-0.379-0.396-0.57-0.803-0.57-1.221c0-0.316,0.107-0.575,0.324-0.773
					c0.215-0.2,0.475-0.3,0.777-0.3c0.381,0,0.713,0.168,0.998,0.503c0.139,0.171,0.283,0.345,0.432,0.518
					c0.148,0.175,0.315,0.323,0.494,0.447c0.181,0.122,0.397,0.214,0.65,0.274c0.254,0.059,0.545,0.09,0.874,0.09
					c0.671,0,1.192-0.093,1.563-0.28c0.37-0.186,0.63-0.448,0.778-0.784c0.149-0.334,0.235-0.693,0.262-1.077
					c0.024-0.384,0.044-0.999,0.056-1.849c-0.398,0.559-0.858,0.983-1.382,1.274c-0.522,0.291-1.145,0.437-1.866,0.437
					c-0.867,0-1.625-0.222-2.275-0.665c-0.648-0.443-1.146-1.064-1.494-1.861c-0.35-0.799-0.523-1.719-0.523-2.764
					c0-0.778,0.105-1.482,0.317-2.108c0.213-0.628,0.516-1.156,0.907-1.587c0.393-0.431,0.845-0.755,1.358-0.974
					c0.512-0.218,1.076-0.327,1.69-0.327c0.733,0,1.37,0.142,1.909,0.422c0.537,0.283,1.039,0.725,1.5,1.326v-0.353
					c0-0.449,0.111-0.797,0.332-1.045c0.223-0.246,0.508-0.37,0.855-0.37c0.5,0,0.832,0.164,0.997,0.489
					C326.948,757.361,327.031,757.832,327.031,758.446z M319.519,761.732c0,1.051,0.229,1.846,0.688,2.384
					c0.459,0.539,1.053,0.808,1.781,0.808c0.43,0,0.837-0.116,1.22-0.347c0.384-0.231,0.695-0.58,0.937-1.045
					c0.24-0.466,0.361-1.03,0.361-1.695c0-1.057-0.232-1.881-0.699-2.469c-0.465-0.589-1.078-0.884-1.838-0.884
					c-0.741,0-1.334,0.282-1.78,0.846C319.741,759.893,319.519,760.694,319.519,761.732z"/>
				<path style="fill:#CF375D;" d="M331.151,757.981v0.313c0.455-0.602,0.955-1.043,1.496-1.325
					c0.541-0.281,1.163-0.423,1.866-0.423c0.684,0,1.295,0.149,1.833,0.447c0.538,0.298,0.941,0.719,1.206,1.262
					c0.172,0.317,0.282,0.66,0.333,1.026c0.051,0.368,0.076,0.836,0.076,1.406v4.824c0,0.52-0.119,0.913-0.356,1.179
					c-0.237,0.266-0.546,0.398-0.926,0.398c-0.387,0-0.7-0.136-0.94-0.408c-0.241-0.273-0.361-0.662-0.361-1.169v-4.321
					c0-0.855-0.119-1.509-0.355-1.961c-0.238-0.452-0.711-0.68-1.421-0.68c-0.462,0-0.883,0.138-1.263,0.413
					c-0.38,0.276-0.658,0.655-0.836,1.136c-0.127,0.387-0.189,1.108-0.189,2.165v3.248c0,0.525-0.123,0.921-0.365,1.184
					c-0.244,0.263-0.559,0.394-0.945,0.394c-0.375,0-0.681-0.136-0.922-0.408c-0.24-0.273-0.361-0.662-0.361-1.169v-7.493
					c0-0.494,0.107-0.863,0.323-1.108c0.216-0.243,0.51-0.365,0.883-0.365c0.229,0,0.435,0.054,0.618,0.162
					c0.184,0.108,0.331,0.269,0.441,0.483C331.097,757.407,331.151,757.671,331.151,757.981z"/>
				<path style="fill:#CF375D;" d="M346.927,762.455h-5.072c0.008,0.588,0.125,1.107,0.357,1.557c0.23,0.45,0.537,0.789,0.921,1.017
					c0.382,0.228,0.806,0.341,1.268,0.341c0.31,0,0.593-0.035,0.851-0.107c0.256-0.074,0.504-0.187,0.746-0.343
					c0.239-0.154,0.461-0.321,0.664-0.499c0.202-0.178,0.465-0.419,0.788-0.723c0.133-0.113,0.323-0.171,0.569-0.171
					c0.267,0,0.482,0.074,0.646,0.22c0.164,0.146,0.246,0.351,0.246,0.617c0,0.234-0.091,0.507-0.275,0.821
					c-0.184,0.313-0.461,0.614-0.831,0.902c-0.37,0.288-0.835,0.526-1.396,0.717c-0.561,0.19-1.205,0.285-1.934,0.285
					c-1.664,0-2.959-0.476-3.885-1.425c-0.924-0.949-1.387-2.238-1.387-3.865c0-0.767,0.115-1.478,0.343-2.132
					c0.227-0.656,0.56-1.218,0.997-1.686c0.438-0.469,0.976-0.827,1.615-1.078c0.639-0.25,1.349-0.374,2.127-0.374
					c1.014,0,1.881,0.212,2.606,0.641c0.726,0.427,1.269,0.979,1.63,1.656c0.36,0.678,0.541,1.369,0.541,2.07
					c0,0.653-0.186,1.075-0.561,1.269C348.13,762.357,347.604,762.455,346.927,762.455z M341.854,760.982h4.701
					c-0.063-0.887-0.302-1.551-0.717-1.99c-0.414-0.44-0.961-0.66-1.638-0.66c-0.647,0-1.177,0.223-1.592,0.669
					C342.194,759.447,341.944,760.108,341.854,760.982z"/>
				<path style="fill:#CF375D;" d="M357.496,765.607v-0.257c-0.349,0.398-0.691,0.724-1.03,0.973
					c-0.339,0.251-0.705,0.441-1.102,0.57c-0.395,0.132-0.828,0.195-1.296,0.195c-0.622,0-1.196-0.131-1.724-0.394
					c-0.529-0.263-0.986-0.639-1.373-1.126c-0.387-0.487-0.68-1.059-0.879-1.719c-0.199-0.659-0.299-1.371-0.299-2.137
					c0-1.621,0.396-2.886,1.188-3.791c0.791-0.904,1.833-1.357,3.125-1.357c0.746,0,1.377,0.129,1.89,0.384
					c0.513,0.257,1.013,0.652,1.5,1.183v-3.827c0-0.532,0.106-0.934,0.319-1.206c0.211-0.272,0.514-0.408,0.906-0.408
					c0.393,0,0.695,0.125,0.907,0.375c0.212,0.251,0.318,0.618,0.318,1.106v11.436c0,0.494-0.114,0.864-0.342,1.111
					c-0.228,0.246-0.522,0.37-0.884,0.37c-0.353,0-0.646-0.128-0.879-0.384C357.612,766.447,357.496,766.082,357.496,765.607z
					 M352.396,761.799c0,0.703,0.108,1.301,0.327,1.795c0.219,0.494,0.518,0.866,0.898,1.115c0.379,0.251,0.794,0.377,1.243,0.377
					c0.456,0,0.873-0.119,1.249-0.357c0.377-0.236,0.678-0.602,0.902-1.091c0.225-0.491,0.338-1.105,0.338-1.839
					c0-0.69-0.113-1.284-0.338-1.782c-0.225-0.496-0.528-0.876-0.912-1.14c-0.383-0.262-0.803-0.393-1.258-0.393
					c-0.475,0-0.899,0.135-1.273,0.403c-0.373,0.269-0.662,0.654-0.869,1.158C352.499,760.55,352.396,761.134,352.396,761.799z"/>
				<path style="fill:#CF375D;" d="M368.095,754.172v3.96c0.486-0.506,0.984-0.894,1.49-1.163c0.507-0.269,1.135-0.403,1.881-0.403
					c0.861,0,1.616,0.204,2.266,0.611c0.648,0.41,1.152,1.002,1.51,1.777c0.357,0.774,0.537,1.695,0.537,2.76
					c0,0.785-0.1,1.504-0.299,2.16c-0.199,0.655-0.49,1.224-0.869,1.704c-0.381,0.481-0.841,0.854-1.382,1.117
					c-0.542,0.263-1.139,0.394-1.79,0.394c-0.4,0-0.775-0.047-1.126-0.143c-0.353-0.095-0.651-0.219-0.897-0.375
					c-0.246-0.154-0.457-0.315-0.632-0.479c-0.174-0.164-0.404-0.412-0.689-0.741v0.257c0,0.487-0.117,0.857-0.352,1.107
					c-0.234,0.25-0.531,0.374-0.893,0.374c-0.367,0-0.66-0.124-0.879-0.374c-0.219-0.251-0.328-0.62-0.328-1.107v-11.322
					c0-0.525,0.106-0.923,0.318-1.191c0.212-0.269,0.509-0.403,0.889-0.403c0.398,0,0.705,0.128,0.921,0.384
					C367.986,753.332,368.095,753.696,368.095,754.172z M368.218,761.875c0,1.032,0.236,1.824,0.707,2.378
					c0.473,0.555,1.092,0.833,1.857,0.833c0.652,0,1.215-0.283,1.686-0.85c0.472-0.567,0.707-1.379,0.707-2.437
					c0-0.684-0.097-1.273-0.293-1.767c-0.197-0.494-0.475-0.876-0.836-1.145s-0.783-0.403-1.264-0.403
					c-0.494,0-0.935,0.135-1.32,0.403c-0.387,0.269-0.689,0.658-0.912,1.168C368.329,760.565,368.218,761.172,368.218,761.875z"/>
				<path style="fill:#CF375D;" d="M379.14,767.412l0.238-0.58l-3.191-8.035c-0.196-0.461-0.295-0.798-0.295-1.007
					c0-0.222,0.057-0.427,0.171-0.616c0.114-0.19,0.271-0.343,0.47-0.456c0.199-0.115,0.407-0.172,0.623-0.172
					c0.373,0,0.654,0.119,0.846,0.356c0.189,0.237,0.357,0.577,0.502,1.021l2.195,6.383l2.08-5.937
					c0.164-0.479,0.313-0.857,0.445-1.13c0.133-0.273,0.273-0.456,0.423-0.55c0.148-0.096,0.359-0.144,0.632-0.144
					c0.197,0,0.385,0.052,0.565,0.157c0.181,0.104,0.319,0.245,0.417,0.423c0.099,0.177,0.148,0.363,0.148,0.56
					c-0.026,0.12-0.066,0.291-0.124,0.514c-0.058,0.221-0.126,0.447-0.208,0.674l-3.382,8.853c-0.292,0.778-0.577,1.389-0.855,1.832
					c-0.278,0.443-0.647,0.785-1.106,1.021c-0.459,0.238-1.078,0.356-1.857,0.356c-0.759,0-1.329-0.082-1.708-0.246
					c-0.382-0.166-0.57-0.467-0.57-0.903c0-0.297,0.089-0.527,0.271-0.688c0.18-0.161,0.448-0.243,0.802-0.243
					c0.14,0,0.276,0.02,0.409,0.059c0.164,0.037,0.307,0.057,0.427,0.057c0.298,0,0.532-0.044,0.704-0.134
					c0.17-0.088,0.323-0.241,0.46-0.461C378.806,768.158,378.963,767.836,379.14,767.412z"/>
			</g>
			<g>
				<path style="fill:#CF375D;" d="M416.703,756.771h0.618v-0.778c0-0.815,0.1-1.457,0.307-1.938
					c0.204-0.479,0.556-0.826,1.047-1.045c0.49-0.217,1.163-0.326,2.017-0.326c1.52,0,2.273,0.367,2.273,1.114
					c0,0.238-0.079,0.444-0.24,0.615c-0.154,0.169-0.343,0.256-0.558,0.256c-0.1,0-0.278-0.018-0.527-0.06
					c-0.237-0.033-0.452-0.056-0.623-0.056c-0.468,0-0.767,0.141-0.905,0.415c-0.127,0.275-0.195,0.669-0.195,1.185v0.617h0.633
					c0.991,0,1.481,0.297,1.481,0.896c0,0.419-0.127,0.69-0.393,0.805c-0.262,0.114-0.624,0.171-1.089,0.171h-0.633v6.871
					c0,0.511-0.12,0.9-0.369,1.168c-0.241,0.272-0.554,0.406-0.942,0.406c-0.367,0-0.671-0.134-0.918-0.406
					c-0.244-0.268-0.364-0.657-0.364-1.168v-6.871h-0.714c-0.389,0-0.683-0.084-0.893-0.262c-0.209-0.171-0.315-0.399-0.315-0.678
					C415.399,757.078,415.834,756.771,416.703,756.771"/>
				<path style="fill:#CF375D;" d="M425.192,763.345v2.168c0,0.523-0.133,0.919-0.374,1.18c-0.247,0.266-0.559,0.395-0.938,0.395
					c-0.382,0-0.688-0.131-0.927-0.4c-0.236-0.264-0.36-0.656-0.36-1.174v-7.223c0-1.166,0.42-1.749,1.261-1.749
					c0.434,0,0.743,0.135,0.934,0.408c0.189,0.273,0.295,0.674,0.317,1.208c0.308-0.534,0.624-0.935,0.948-1.208
					c0.332-0.273,0.763-0.408,1.31-0.408c0.549,0,1.072,0.135,1.585,0.408c0.516,0.273,0.772,0.637,0.772,1.085
					c0,0.314-0.11,0.58-0.326,0.781c-0.22,0.209-0.454,0.312-0.706,0.312c-0.1,0-0.331-0.063-0.692-0.18
					c-0.365-0.113-0.689-0.173-0.963-0.173c-0.38,0-0.692,0.103-0.932,0.298c-0.242,0.205-0.431,0.497-0.564,0.887
					c-0.129,0.395-0.219,0.865-0.272,1.404C425.215,761.905,425.192,762.566,425.192,763.345"/>
				<path style="fill:#CF375D;" d="M437.113,762.452h-5.074c0.009,0.588,0.124,1.11,0.354,1.559c0.235,0.446,0.54,0.786,0.925,1.017
					c0.385,0.228,0.804,0.34,1.268,0.34c0.311,0,0.593-0.033,0.85-0.111c0.254-0.069,0.505-0.186,0.745-0.341
					c0.242-0.152,0.46-0.318,0.664-0.5c0.202-0.175,0.467-0.416,0.79-0.719c0.135-0.113,0.324-0.174,0.568-0.174
					c0.269,0,0.481,0.074,0.649,0.222c0.166,0.148,0.243,0.351,0.243,0.617c0,0.235-0.089,0.508-0.268,0.819
					c-0.188,0.317-0.463,0.616-0.836,0.906c-0.374,0.285-0.839,0.527-1.397,0.714c-0.56,0.19-1.206,0.286-1.932,0.286
					c-1.671,0-2.964-0.473-3.887-1.422c-0.924-0.952-1.392-2.242-1.392-3.868c0-0.767,0.117-1.478,0.348-2.135
					c0.225-0.658,0.558-1.216,0.999-1.688c0.436-0.471,0.97-0.828,1.612-1.078c0.638-0.249,1.347-0.374,2.128-0.374
					c1.011,0,1.881,0.214,2.606,0.646c0.724,0.423,1.273,0.976,1.629,1.654c0.361,0.681,0.542,1.368,0.542,2.074
					c0,0.648-0.189,1.07-0.562,1.266C438.315,762.356,437.791,762.452,437.113,762.452 M432.039,760.977h4.701
					c-0.063-0.885-0.298-1.55-0.714-1.986c-0.418-0.442-0.959-0.66-1.641-0.66c-0.645,0-1.177,0.22-1.592,0.669
					C432.38,759.446,432.126,760.104,432.039,760.977"/>
				<path style="fill:#CF375D;" d="M447.9,762.452h-5.073c0.006,0.588,0.125,1.11,0.354,1.559c0.232,0.446,0.539,0.786,0.921,1.017
					c0.383,0.228,0.806,0.34,1.272,0.34c0.308,0,0.593-0.033,0.845-0.111c0.259-0.069,0.506-0.186,0.75-0.341
					c0.242-0.152,0.46-0.318,0.664-0.5c0.199-0.175,0.464-0.416,0.788-0.719c0.135-0.113,0.326-0.174,0.568-0.174
					c0.268,0,0.483,0.074,0.65,0.222c0.165,0.148,0.24,0.351,0.24,0.617c0,0.235-0.087,0.508-0.273,0.819
					c-0.177,0.317-0.455,0.616-0.83,0.906c-0.37,0.285-0.84,0.527-1.396,0.714c-0.558,0.19-1.208,0.286-1.935,0.286
					c-1.667,0-2.959-0.473-3.887-1.422c-0.924-0.952-1.389-2.242-1.389-3.868c0-0.767,0.116-1.478,0.348-2.135
					c0.227-0.658,0.559-1.216,0.996-1.688c0.436-0.471,0.973-0.828,1.614-1.078c0.638-0.249,1.351-0.374,2.129-0.374
					c1.009,0,1.878,0.214,2.613,0.646c0.72,0.423,1.266,0.976,1.621,1.654c0.359,0.681,0.545,1.368,0.545,2.074
					c0,0.648-0.191,1.07-0.561,1.266C449.101,762.356,448.576,762.452,447.9,762.452 M442.827,760.977h4.701
					c-0.064-0.885-0.304-1.55-0.715-1.986c-0.421-0.442-0.962-0.66-1.643-0.66c-0.646,0-1.176,0.22-1.593,0.669
					C443.165,759.446,442.911,760.104,442.827,760.977"/>
				<path style="fill:#CF375D;" d="M453.58,758v0.31c0.486-0.6,0.994-1.042,1.524-1.324c0.518-0.284,1.118-0.427,1.782-0.427
					c0.795,0,1.535,0.208,2.207,0.617c0.671,0.414,1.198,1.016,1.589,1.807c0.39,0.795,0.586,1.729,0.586,2.813
					c0,0.796-0.112,1.531-0.336,2.201c-0.224,0.668-0.537,1.227-0.929,1.68c-0.393,0.45-0.855,0.802-1.39,1.046
					c-0.542,0.241-1.111,0.363-1.728,0.363c-0.738,0-1.364-0.148-1.865-0.447c-0.503-0.292-0.982-0.733-1.441-1.306v3.893
					c0,1.136-0.416,1.71-1.244,1.71c-0.49,0-0.809-0.147-0.972-0.439c-0.151-0.299-0.233-0.724-0.233-1.291v-11.193
					c0-0.495,0.106-0.859,0.32-1.107c0.215-0.239,0.512-0.364,0.885-0.364c0.369,0,0.666,0.125,0.896,0.374
					C453.467,757.169,453.58,757.525,453.58,758 M458.664,761.768c0-0.685-0.107-1.273-0.315-1.763
					c-0.209-0.492-0.499-0.867-0.866-1.128c-0.367-0.263-0.782-0.396-1.232-0.396c-0.714,0-1.318,0.284-1.809,0.844
					c-0.492,0.566-0.739,1.396-0.739,2.493c0,1.026,0.244,1.833,0.735,2.406c0.487,0.573,1.086,0.858,1.813,0.858
					c0.429,0,0.83-0.126,1.197-0.372c0.371-0.253,0.665-0.627,0.884-1.127C458.553,763.081,458.664,762.476,458.664,761.768"/>
				<path style="fill:#CF375D;" d="M463.88,755.334c-0.362,0-0.669-0.114-0.923-0.335c-0.26-0.223-0.388-0.532-0.388-0.937
					c0-0.368,0.131-0.67,0.397-0.91c0.262-0.234,0.566-0.355,0.914-0.355c0.34,0,0.636,0.106,0.893,0.319
					c0.26,0.219,0.391,0.534,0.391,0.946c0,0.399-0.127,0.711-0.378,0.935C464.532,755.22,464.231,755.334,463.88,755.334
					 M465.164,758.013v7.502c0,0.516-0.124,0.908-0.37,1.172c-0.25,0.27-0.56,0.4-0.941,0.4c-0.381,0-0.684-0.134-0.928-0.406
					c-0.233-0.276-0.355-0.665-0.355-1.166v-7.428c0-0.51,0.122-0.895,0.355-1.154c0.243-0.265,0.547-0.392,0.928-0.392
					c0.381,0,0.691,0.127,0.941,0.392C465.04,757.192,465.164,757.555,465.164,758.013"/>
				<path style="fill:#CF375D;" d="M473.523,765.903l-2.284-3.766l-1.408,1.328v2.065c0,0.499-0.133,0.882-0.396,1.149
					c-0.257,0.272-0.566,0.406-0.906,0.406c-0.398,0-0.715-0.131-0.94-0.4c-0.227-0.264-0.344-0.656-0.344-1.174v-11.063
					c0-0.573,0.114-1.011,0.331-1.314c0.223-0.305,0.545-0.452,0.953-0.452c0.399,0,0.713,0.137,0.949,0.411
					c0.234,0.27,0.354,0.674,0.354,1.202v6.293l2.916-3.063c0.362-0.376,0.633-0.641,0.827-0.778c0.19-0.139,0.419-0.208,0.69-0.208
					c0.326,0,0.594,0.103,0.815,0.309c0.211,0.206,0.32,0.466,0.32,0.773c0,0.379-0.353,0.889-1.055,1.521l-1.377,1.263l2.659,4.183
					c0.193,0.314,0.339,0.544,0.424,0.706c0.084,0.159,0.13,0.319,0.13,0.462c0,0.413-0.114,0.734-0.341,0.976
					c-0.225,0.236-0.523,0.354-0.886,0.354c-0.316,0-0.564-0.081-0.733-0.256C474.051,766.658,473.813,766.348,473.523,765.903"/>
				<path style="fill:#CF375D;" d="M479.159,767.087c-0.392,0-0.728-0.126-1.014-0.381c-0.284-0.249-0.429-0.606-0.429-1.065
					c0-0.386,0.138-0.719,0.41-0.995c0.274-0.279,0.607-0.419,1.008-0.419c0.397,0,0.735,0.14,1.022,0.412
					c0.279,0.275,0.422,0.612,0.422,1.002c0,0.452-0.143,0.808-0.422,1.06C479.87,766.961,479.538,767.087,479.159,767.087"/>
				<path style="fill:#CF375D;" d="M492.058,763.877c0,0.32-0.097,0.668-0.291,1.034c-0.191,0.37-0.488,0.718-0.886,1.05
					c-0.395,0.332-0.892,0.603-1.495,0.804c-0.6,0.202-1.28,0.307-2.03,0.307c-1.607,0-2.858-0.47-3.758-1.401
					c-0.896-0.936-1.346-2.189-1.346-3.76c0-1.067,0.204-2.006,0.619-2.824c0.407-0.814,1.004-1.447,1.781-1.893
					c0.779-0.448,1.716-0.67,2.794-0.67c0.674,0,1.288,0.098,1.853,0.295c0.561,0.195,1.032,0.451,1.425,0.759
					c0.387,0.314,0.686,0.644,0.89,0.992c0.207,0.352,0.308,0.681,0.308,0.987c0,0.308-0.113,0.571-0.343,0.787
					c-0.235,0.215-0.516,0.324-0.839,0.324c-0.219,0-0.397-0.057-0.541-0.166c-0.143-0.112-0.305-0.29-0.478-0.542
					c-0.317-0.478-0.647-0.842-0.996-1.079c-0.343-0.243-0.78-0.362-1.313-0.362c-0.762,0-1.384,0.298-1.854,0.897
					c-0.468,0.596-0.703,1.42-0.703,2.454c0,0.488,0.063,0.94,0.183,1.348c0.117,0.407,0.291,0.756,0.52,1.044
					c0.23,0.287,0.504,0.505,0.826,0.654c0.324,0.153,0.681,0.226,1.064,0.226c0.521,0,0.967-0.12,1.337-0.36
					c0.376-0.241,0.702-0.607,0.986-1.103c0.158-0.291,0.327-0.517,0.509-0.684c0.183-0.163,0.409-0.249,0.676-0.249
					c0.316,0,0.58,0.123,0.786,0.362C491.951,763.348,492.058,763.606,492.058,763.877"/>
				<path style="fill:#CF375D;" d="M503.248,761.816c0,0.769-0.122,1.484-0.355,2.139c-0.247,0.652-0.592,1.213-1.05,1.679
					c-0.455,0.469-1.002,0.828-1.632,1.08c-0.64,0.247-1.35,0.375-2.139,0.375c-0.785,0-1.493-0.128-2.121-0.383
					c-0.623-0.249-1.171-0.614-1.626-1.082c-0.461-0.477-0.809-1.034-1.052-1.677c-0.229-0.644-0.35-1.355-0.35-2.131
					c0-0.786,0.124-1.506,0.358-2.158c0.242-0.654,0.589-1.212,1.039-1.673c0.451-0.462,0.993-0.817,1.631-1.07
					c0.643-0.249,1.35-0.374,2.121-0.374c0.784,0,1.498,0.125,2.139,0.382c0.638,0.251,1.183,0.614,1.644,1.079
					c0.458,0.475,0.803,1.029,1.04,1.672C503.128,760.325,503.248,761.034,503.248,761.816 M500.645,761.816
					c0-1.059-0.234-1.881-0.698-2.469c-0.463-0.596-1.09-0.888-1.874-0.888c-0.508,0-0.955,0.132-1.343,0.393
					c-0.387,0.262-0.681,0.649-0.89,1.164c-0.209,0.514-0.315,1.113-0.315,1.799c0,0.679,0.103,1.268,0.31,1.773
					c0.208,0.511,0.502,0.898,0.886,1.166c0.386,0.267,0.835,0.404,1.353,0.404c0.784,0,1.411-0.296,1.874-0.892
					C500.41,763.678,500.645,762.857,500.645,761.816"/>
				<path style="fill:#CF375D;" d="M513.14,762.007v3.446c0,0.547-0.12,0.951-0.369,1.228c-0.25,0.272-0.571,0.408-0.978,0.408
					c-0.393,0-0.714-0.136-0.951-0.408c-0.247-0.276-0.372-0.681-0.372-1.228v-4.131c0-0.653-0.021-1.162-0.063-1.524
					c-0.046-0.354-0.168-0.655-0.362-0.883c-0.196-0.235-0.509-0.352-0.931-0.352c-0.851,0-1.407,0.29-1.677,0.881
					c-0.268,0.576-0.406,1.413-0.406,2.507v3.502c0,0.538-0.122,0.946-0.361,1.224c-0.249,0.273-0.567,0.412-0.965,0.412
					c-0.396,0-0.717-0.139-0.967-0.412c-0.252-0.277-0.376-0.686-0.376-1.224v-7.419c0-0.489,0.111-0.86,0.335-1.111
					c0.229-0.257,0.526-0.382,0.89-0.382c0.357,0,0.651,0.123,0.892,0.355c0.236,0.238,0.355,0.566,0.355,0.984v0.245
					c0.453-0.535,0.935-0.932,1.444-1.181c0.517-0.26,1.082-0.386,1.713-0.386c0.651,0,1.211,0.131,1.678,0.39
					c0.47,0.261,0.854,0.655,1.16,1.177c0.44-0.528,0.909-0.923,1.41-1.181c0.5-0.257,1.053-0.386,1.662-0.386
					c0.706,0,1.321,0.143,1.834,0.419c0.51,0.278,0.893,0.68,1.147,1.195c0.221,0.473,0.33,1.21,0.33,2.217v5.063
					c0,0.547-0.122,0.951-0.367,1.228c-0.246,0.272-0.575,0.408-0.98,0.408c-0.395,0-0.714-0.139-0.965-0.412
					c-0.25-0.277-0.376-0.686-0.376-1.224v-4.361c0-0.559-0.023-1.003-0.069-1.338c-0.047-0.337-0.177-0.62-0.383-0.847
					c-0.212-0.228-0.53-0.344-0.953-0.344c-0.342,0-0.666,0.106-0.974,0.308c-0.307,0.198-0.547,0.477-0.721,0.813
					C513.238,760.122,513.14,760.896,513.14,762.007"/>
			</g>
			<g>
				<path style="fill:#CF375D;" d="M392.435,761.188c-0.002-0.005-0.002-0.01-0.002-0.018
					C392.433,761.179,392.433,761.184,392.435,761.188z"/>
				<path style="fill:#CF375D;" d="M392.565,762.018c0.002,0,0.002,0,0.004,0c-0.051-0.236-0.089-0.471-0.119-0.702
					C392.48,761.549,392.519,761.784,392.565,762.018z"/>
				<path style="fill:#CF375D;" d="M393.425,764.424c-0.006-0.01-0.012-0.022-0.018-0.033
					C393.413,764.402,393.419,764.414,393.425,764.424z"/>
				<path style="fill:#CF375D;" d="M393.343,764.264c-0.024-0.044-0.045-0.09-0.066-0.134
					C393.298,764.177,393.319,764.22,393.343,764.264z"/>
				<path style="fill:#CF375D;" d="M392.808,762.944c0.127,0.4,0.279,0.788,0.457,1.158c-0.181-0.378-0.33-0.767-0.454-1.158
					H392.808z"/>
				<path style="fill:#CF375D;" d="M402.473,751.252c0.501,0,0.871,0.04,1.295,0.111l0.12-0.763c0,0-1.171-0.36-2.711-0.234
					l-0.121-0.415c0.478-0.101,0.838-0.526,0.838-1.034c0-0.582-0.474-1.054-1.057-1.054s-1.056,0.472-1.056,1.054
					c0,0.508,0.358,0.934,0.836,1.034l0.134,0.463c-1.635,0.225-2.936,0.862-2.936,0.862l0.23,0.705
					c0.989-0.329,1.847-0.529,2.625-0.613C401.433,751.287,402.005,751.252,402.473,751.252z"/>
				<path style="fill:#CF375D;" d="M393.405,755.11l0.006-0.008c0.038-0.05,0.075-0.097,0.113-0.142l-0.314-0.226l-0.487-0.356
					c-0.027,0.038-0.795,0.744-1.402,2.048c-0.025-0.041-0.055-0.081-0.09-0.119c-0.182-0.198-0.435-0.3-0.758-0.294
					c-0.004,0-0.01,0-0.015,0c-0.2,0-0.337-0.066-0.427-0.148c0.09-0.113,0.143-0.256,0.143-0.413c0-0.368-0.299-0.669-0.669-0.669
					c-0.368,0-0.669,0.301-0.669,0.669c0,0.37,0.301,0.669,0.669,0.669c0.058,0,0.113-0.01,0.167-0.021
					c0.164,0.183,0.426,0.342,0.808,0.334c0.196-0.002,0.341,0.049,0.438,0.155c0.11,0.121,0.148,0.296,0.159,0.428
					c0,0.002,0,0.005-0.002,0.005c-0.436,1.189-0.311,2.67-0.311,2.67l1.058,0.042c0.022-0.539,0.098-1.482,0.371-2.23
					C392.719,756.055,393.378,755.148,393.405,755.11z"/>
				<path style="fill:#CF375D;" d="M411.672,752.136c-0.368,0-0.669,0.299-0.669,0.669c0,0.058,0.009,0.112,0.023,0.165
					c-0.184,0.166-0.343,0.428-0.337,0.811c0.003,0.197-0.048,0.34-0.154,0.437c-0.085,0.075-0.191,0.115-0.296,0.141
					c-0.787-1.103-1.756-1.775-1.756-1.775l-0.759,0.814c0.573,0.521,1.159,1.175,1.729,1.99c0.394,0.564,0.799,1.29,1.136,2.015
					l1.024-0.486c0,0-0.468-1.155-1.126-2.191c0.114-0.04,0.229-0.103,0.331-0.192c0.2-0.181,0.299-0.436,0.293-0.758
					c-0.002-0.208,0.066-0.349,0.148-0.441c0.114,0.087,0.257,0.142,0.412,0.142c0.371,0,0.67-0.3,0.67-0.669
					C412.342,752.435,412.043,752.136,411.672,752.136z"/>
				<path style="fill:#CF375D;" d="M409.015,761.338c-1.409,0.687-3.728,1.594-6.781,2.02c-1.198,0.166-2.359,0.228-3.428,0.228
					c-1.391,0-2.62-0.104-3.563-0.223c-1.076-0.136-1.918-0.302-2.433-0.418c0.124,0.392,0.274,0.78,0.454,1.158
					c0.003,0.01,0.008,0.021,0.012,0.027c0.021,0.044,0.043,0.09,0.066,0.134c0.021,0.044,0.043,0.087,0.064,0.127
					c0.006,0.012,0.012,0.023,0.018,0.033c0.303,0.57,0.666,1.095,1.08,1.549c1.439,1.575,2.907,1.824,2.921,1.826l0.022,0.003
					l0.022,0.008c0.014,0.005,1.314,0.425,3.292,0.425c1.945,0,3.854-0.393,5.674-1.167c1.348-0.689,2.622-1.736,3.254-2.67
					c0.488-0.723,0.841-1.493,1.05-2.294c0.111-0.426,0.199-1.107,0.147-1.825C410.49,760.545,409.863,760.925,409.015,761.338z"/>
				<path style="fill:#CF375D;" d="M393.857,755.444c-0.041,0.06-0.652,0.925-1.136,2.253c-0.361,0.995-0.346,2.443-0.346,2.46
					v0.003c0,0.34,0.019,0.677,0.057,1.011c0,0.008,0,0.013,0.002,0.018c0.004,0.043,0.012,0.084,0.016,0.127
					c0.03,0.231,0.068,0.466,0.119,0.702c0.699,0.178,4.878,1.152,9.548,0.502c2.927-0.407,5.149-1.272,6.499-1.927
					c1.121-0.544,1.842-1.036,2.12-1.238c-0.277-1.028-1.042-2.641-1.743-3.646c-2.005-2.865-4.167-3.601-5.277-3.783
					c-0.424-0.069-0.763-0.109-1.243-0.109c-0.447,0-1.002,0.036-1.743,0.114c-0.743,0.077-1.572,0.272-2.532,0.596
					c-1.348,0.451-2.567,1.159-3.526,2.048l-0.033,0.03C394.495,754.734,394.198,755.01,393.857,755.444z M406.127,754.777
					c0.961,0,1.743,0.781,1.743,1.743s-0.782,1.744-1.743,1.744c-0.962,0-1.742-0.782-1.742-1.744S405.165,754.777,406.127,754.777z
					 M397.886,754.708c1.557,0,2.816,1.262,2.816,2.817c0,1.556-1.26,2.814-2.816,2.814c-1.555,0-2.816-1.259-2.816-2.814
					C395.069,755.97,396.331,754.708,397.886,754.708z"/>
			</g>
		</g>
	</g>
</g>
</svg>
